%TF.GenerationSoftware,KiCad,Pcbnew,(5.1.9)-1*%
%TF.CreationDate,2021-02-21T16:58:34+00:00*%
%TF.ProjectId,PicoProducer,5069636f-5072-46f6-9475-6365722e6b69,rev?*%
%TF.SameCoordinates,Original*%
%TF.FileFunction,Legend,Top*%
%TF.FilePolarity,Positive*%
%FSLAX46Y46*%
G04 Gerber Fmt 4.6, Leading zero omitted, Abs format (unit mm)*
G04 Created by KiCad (PCBNEW (5.1.9)-1) date 2021-02-21 16:58:34*
%MOMM*%
%LPD*%
G01*
G04 APERTURE LIST*
%ADD10C,0.120000*%
%ADD11C,0.150000*%
G04 APERTURE END LIST*
D10*
%TO.C,D1*%
X34250000Y-25400000D02*
G75*
G03*
X34250000Y-25400000I-2500000J0D01*
G01*
X29190000Y-23855000D02*
X29190000Y-26945000D01*
X34740000Y-25399538D02*
G75*
G02*
X29190000Y-26944830I-2990000J-462D01*
G01*
X34740000Y-25400462D02*
G75*
G03*
X29190000Y-23855170I-2990000J462D01*
G01*
%TO.C,D2*%
X55840000Y-25400000D02*
G75*
G03*
X55840000Y-25400000I-2500000J0D01*
G01*
X50780000Y-23855000D02*
X50780000Y-26945000D01*
X56330000Y-25399538D02*
G75*
G02*
X50780000Y-26944830I-2990000J-462D01*
G01*
X56330000Y-25400462D02*
G75*
G03*
X50780000Y-23855170I-2990000J462D01*
G01*
%TO.C,D3*%
X77430000Y-25400000D02*
G75*
G03*
X77430000Y-25400000I-2500000J0D01*
G01*
X72370000Y-23855000D02*
X72370000Y-26945000D01*
X77920000Y-25399538D02*
G75*
G02*
X72370000Y-26944830I-2990000J-462D01*
G01*
X77920000Y-25400462D02*
G75*
G03*
X72370000Y-23855170I-2990000J462D01*
G01*
%TO.C,D4*%
X99020000Y-25400000D02*
G75*
G03*
X99020000Y-25400000I-2500000J0D01*
G01*
X93960000Y-23855000D02*
X93960000Y-26945000D01*
X99510000Y-25399538D02*
G75*
G02*
X93960000Y-26944830I-2990000J-462D01*
G01*
X99510000Y-25400462D02*
G75*
G03*
X93960000Y-23855170I-2990000J462D01*
G01*
%TO.C,D5*%
X34250000Y-45720000D02*
G75*
G03*
X34250000Y-45720000I-2500000J0D01*
G01*
X29190000Y-44175000D02*
X29190000Y-47265000D01*
X34740000Y-45719538D02*
G75*
G02*
X29190000Y-47264830I-2990000J-462D01*
G01*
X34740000Y-45720462D02*
G75*
G03*
X29190000Y-44175170I-2990000J462D01*
G01*
%TO.C,D6*%
X55840000Y-45720000D02*
G75*
G03*
X55840000Y-45720000I-2500000J0D01*
G01*
X50780000Y-44175000D02*
X50780000Y-47265000D01*
X56330000Y-45719538D02*
G75*
G02*
X50780000Y-47264830I-2990000J-462D01*
G01*
X56330000Y-45720462D02*
G75*
G03*
X50780000Y-44175170I-2990000J462D01*
G01*
%TO.C,D7*%
X77430000Y-45720000D02*
G75*
G03*
X77430000Y-45720000I-2500000J0D01*
G01*
X72370000Y-44175000D02*
X72370000Y-47265000D01*
X77920000Y-45719538D02*
G75*
G02*
X72370000Y-47264830I-2990000J-462D01*
G01*
X77920000Y-45720462D02*
G75*
G03*
X72370000Y-44175170I-2990000J462D01*
G01*
%TO.C,D8*%
X99020000Y-45720000D02*
G75*
G03*
X99020000Y-45720000I-2500000J0D01*
G01*
X93960000Y-44175000D02*
X93960000Y-47265000D01*
X99510000Y-45719538D02*
G75*
G02*
X93960000Y-47264830I-2990000J-462D01*
G01*
X99510000Y-45720462D02*
G75*
G03*
X93960000Y-44175170I-2990000J462D01*
G01*
%TO.C,D9*%
X29190000Y-64495000D02*
X29190000Y-67585000D01*
X34250000Y-66040000D02*
G75*
G03*
X34250000Y-66040000I-2500000J0D01*
G01*
X34740000Y-66040462D02*
G75*
G03*
X29190000Y-64495170I-2990000J462D01*
G01*
X34740000Y-66039538D02*
G75*
G02*
X29190000Y-67584830I-2990000J-462D01*
G01*
%TO.C,D10*%
X50780000Y-64495000D02*
X50780000Y-67585000D01*
X55840000Y-66040000D02*
G75*
G03*
X55840000Y-66040000I-2500000J0D01*
G01*
X56330000Y-66040462D02*
G75*
G03*
X50780000Y-64495170I-2990000J462D01*
G01*
X56330000Y-66039538D02*
G75*
G02*
X50780000Y-67584830I-2990000J-462D01*
G01*
%TO.C,D11*%
X72370000Y-64495000D02*
X72370000Y-67585000D01*
X77430000Y-66040000D02*
G75*
G03*
X77430000Y-66040000I-2500000J0D01*
G01*
X77920000Y-66040462D02*
G75*
G03*
X72370000Y-64495170I-2990000J462D01*
G01*
X77920000Y-66039538D02*
G75*
G02*
X72370000Y-67584830I-2990000J-462D01*
G01*
%TO.C,D12*%
X93960000Y-64495000D02*
X93960000Y-67585000D01*
X99020000Y-66040000D02*
G75*
G03*
X99020000Y-66040000I-2500000J0D01*
G01*
X99510000Y-66040462D02*
G75*
G03*
X93960000Y-64495170I-2990000J462D01*
G01*
X99510000Y-66039538D02*
G75*
G02*
X93960000Y-67584830I-2990000J-462D01*
G01*
%TO.C,SW1*%
X24765000Y-28575000D02*
X38735000Y-28575000D01*
X38735000Y-28575000D02*
X38735000Y-42545000D01*
X38735000Y-42545000D02*
X24765000Y-42545000D01*
X24765000Y-42545000D02*
X24765000Y-28575000D01*
%TO.C,SW2*%
X46355000Y-28575000D02*
X60325000Y-28575000D01*
X60325000Y-28575000D02*
X60325000Y-42545000D01*
X60325000Y-42545000D02*
X46355000Y-42545000D01*
X46355000Y-42545000D02*
X46355000Y-28575000D01*
%TO.C,SW3*%
X67945000Y-28575000D02*
X81915000Y-28575000D01*
X81915000Y-28575000D02*
X81915000Y-42545000D01*
X81915000Y-42545000D02*
X67945000Y-42545000D01*
X67945000Y-42545000D02*
X67945000Y-28575000D01*
%TO.C,SW4*%
X89535000Y-28575000D02*
X103505000Y-28575000D01*
X103505000Y-28575000D02*
X103505000Y-42545000D01*
X103505000Y-42545000D02*
X89535000Y-42545000D01*
X89535000Y-42545000D02*
X89535000Y-28575000D01*
%TO.C,SW5*%
X24765000Y-48895000D02*
X38735000Y-48895000D01*
X38735000Y-48895000D02*
X38735000Y-62865000D01*
X38735000Y-62865000D02*
X24765000Y-62865000D01*
X24765000Y-62865000D02*
X24765000Y-48895000D01*
%TO.C,SW6*%
X46355000Y-48895000D02*
X60325000Y-48895000D01*
X60325000Y-48895000D02*
X60325000Y-62865000D01*
X60325000Y-62865000D02*
X46355000Y-62865000D01*
X46355000Y-62865000D02*
X46355000Y-48895000D01*
%TO.C,SW7*%
X67945000Y-62865000D02*
X67945000Y-48895000D01*
X81915000Y-62865000D02*
X67945000Y-62865000D01*
X81915000Y-48895000D02*
X81915000Y-62865000D01*
X67945000Y-48895000D02*
X81915000Y-48895000D01*
%TO.C,SW8*%
X89535000Y-48895000D02*
X103505000Y-48895000D01*
X103505000Y-48895000D02*
X103505000Y-62865000D01*
X103505000Y-62865000D02*
X89535000Y-62865000D01*
X89535000Y-62865000D02*
X89535000Y-48895000D01*
%TO.C,SW9*%
X24765000Y-83185000D02*
X24765000Y-69215000D01*
X38735000Y-83185000D02*
X24765000Y-83185000D01*
X38735000Y-69215000D02*
X38735000Y-83185000D01*
X24765000Y-69215000D02*
X38735000Y-69215000D01*
%TO.C,SW10*%
X46355000Y-83185000D02*
X46355000Y-69215000D01*
X60325000Y-83185000D02*
X46355000Y-83185000D01*
X60325000Y-69215000D02*
X60325000Y-83185000D01*
X46355000Y-69215000D02*
X60325000Y-69215000D01*
%TO.C,SW11*%
X67945000Y-69215000D02*
X81915000Y-69215000D01*
X81915000Y-69215000D02*
X81915000Y-83185000D01*
X81915000Y-83185000D02*
X67945000Y-83185000D01*
X67945000Y-83185000D02*
X67945000Y-69215000D01*
%TO.C,SW12*%
X89535000Y-83185000D02*
X89535000Y-69215000D01*
X103505000Y-83185000D02*
X89535000Y-83185000D01*
X103505000Y-69215000D02*
X103505000Y-83185000D01*
X89535000Y-69215000D02*
X103505000Y-69215000D01*
%TO.C,D1*%
D11*
X25931904Y-25852380D02*
X25931904Y-24852380D01*
X26170000Y-24852380D01*
X26312857Y-24900000D01*
X26408095Y-24995238D01*
X26455714Y-25090476D01*
X26503333Y-25280952D01*
X26503333Y-25423809D01*
X26455714Y-25614285D01*
X26408095Y-25709523D01*
X26312857Y-25804761D01*
X26170000Y-25852380D01*
X25931904Y-25852380D01*
X27455714Y-25852380D02*
X26884285Y-25852380D01*
X27170000Y-25852380D02*
X27170000Y-24852380D01*
X27074761Y-24995238D01*
X26979523Y-25090476D01*
X26884285Y-25138095D01*
%TO.C,D2*%
X47521904Y-25852380D02*
X47521904Y-24852380D01*
X47760000Y-24852380D01*
X47902857Y-24900000D01*
X47998095Y-24995238D01*
X48045714Y-25090476D01*
X48093333Y-25280952D01*
X48093333Y-25423809D01*
X48045714Y-25614285D01*
X47998095Y-25709523D01*
X47902857Y-25804761D01*
X47760000Y-25852380D01*
X47521904Y-25852380D01*
X48474285Y-24947619D02*
X48521904Y-24900000D01*
X48617142Y-24852380D01*
X48855238Y-24852380D01*
X48950476Y-24900000D01*
X48998095Y-24947619D01*
X49045714Y-25042857D01*
X49045714Y-25138095D01*
X48998095Y-25280952D01*
X48426666Y-25852380D01*
X49045714Y-25852380D01*
%TO.C,D3*%
X69111904Y-25852380D02*
X69111904Y-24852380D01*
X69350000Y-24852380D01*
X69492857Y-24900000D01*
X69588095Y-24995238D01*
X69635714Y-25090476D01*
X69683333Y-25280952D01*
X69683333Y-25423809D01*
X69635714Y-25614285D01*
X69588095Y-25709523D01*
X69492857Y-25804761D01*
X69350000Y-25852380D01*
X69111904Y-25852380D01*
X70016666Y-24852380D02*
X70635714Y-24852380D01*
X70302380Y-25233333D01*
X70445238Y-25233333D01*
X70540476Y-25280952D01*
X70588095Y-25328571D01*
X70635714Y-25423809D01*
X70635714Y-25661904D01*
X70588095Y-25757142D01*
X70540476Y-25804761D01*
X70445238Y-25852380D01*
X70159523Y-25852380D01*
X70064285Y-25804761D01*
X70016666Y-25757142D01*
%TO.C,D4*%
X91971904Y-25852380D02*
X91971904Y-24852380D01*
X92210000Y-24852380D01*
X92352857Y-24900000D01*
X92448095Y-24995238D01*
X92495714Y-25090476D01*
X92543333Y-25280952D01*
X92543333Y-25423809D01*
X92495714Y-25614285D01*
X92448095Y-25709523D01*
X92352857Y-25804761D01*
X92210000Y-25852380D01*
X91971904Y-25852380D01*
X93400476Y-25185714D02*
X93400476Y-25852380D01*
X93162380Y-24804761D02*
X92924285Y-25519047D01*
X93543333Y-25519047D01*
%TO.C,D5*%
X31011904Y-42212380D02*
X31011904Y-41212380D01*
X31250000Y-41212380D01*
X31392857Y-41260000D01*
X31488095Y-41355238D01*
X31535714Y-41450476D01*
X31583333Y-41640952D01*
X31583333Y-41783809D01*
X31535714Y-41974285D01*
X31488095Y-42069523D01*
X31392857Y-42164761D01*
X31250000Y-42212380D01*
X31011904Y-42212380D01*
X32488095Y-41212380D02*
X32011904Y-41212380D01*
X31964285Y-41688571D01*
X32011904Y-41640952D01*
X32107142Y-41593333D01*
X32345238Y-41593333D01*
X32440476Y-41640952D01*
X32488095Y-41688571D01*
X32535714Y-41783809D01*
X32535714Y-42021904D01*
X32488095Y-42117142D01*
X32440476Y-42164761D01*
X32345238Y-42212380D01*
X32107142Y-42212380D01*
X32011904Y-42164761D01*
X31964285Y-42117142D01*
%TO.C,D6*%
X52601904Y-42212380D02*
X52601904Y-41212380D01*
X52840000Y-41212380D01*
X52982857Y-41260000D01*
X53078095Y-41355238D01*
X53125714Y-41450476D01*
X53173333Y-41640952D01*
X53173333Y-41783809D01*
X53125714Y-41974285D01*
X53078095Y-42069523D01*
X52982857Y-42164761D01*
X52840000Y-42212380D01*
X52601904Y-42212380D01*
X54030476Y-41212380D02*
X53840000Y-41212380D01*
X53744761Y-41260000D01*
X53697142Y-41307619D01*
X53601904Y-41450476D01*
X53554285Y-41640952D01*
X53554285Y-42021904D01*
X53601904Y-42117142D01*
X53649523Y-42164761D01*
X53744761Y-42212380D01*
X53935238Y-42212380D01*
X54030476Y-42164761D01*
X54078095Y-42117142D01*
X54125714Y-42021904D01*
X54125714Y-41783809D01*
X54078095Y-41688571D01*
X54030476Y-41640952D01*
X53935238Y-41593333D01*
X53744761Y-41593333D01*
X53649523Y-41640952D01*
X53601904Y-41688571D01*
X53554285Y-41783809D01*
%TO.C,D7*%
X74191904Y-42212380D02*
X74191904Y-41212380D01*
X74430000Y-41212380D01*
X74572857Y-41260000D01*
X74668095Y-41355238D01*
X74715714Y-41450476D01*
X74763333Y-41640952D01*
X74763333Y-41783809D01*
X74715714Y-41974285D01*
X74668095Y-42069523D01*
X74572857Y-42164761D01*
X74430000Y-42212380D01*
X74191904Y-42212380D01*
X75096666Y-41212380D02*
X75763333Y-41212380D01*
X75334761Y-42212380D01*
%TO.C,D8*%
X95781904Y-42212380D02*
X95781904Y-41212380D01*
X96020000Y-41212380D01*
X96162857Y-41260000D01*
X96258095Y-41355238D01*
X96305714Y-41450476D01*
X96353333Y-41640952D01*
X96353333Y-41783809D01*
X96305714Y-41974285D01*
X96258095Y-42069523D01*
X96162857Y-42164761D01*
X96020000Y-42212380D01*
X95781904Y-42212380D01*
X96924761Y-41640952D02*
X96829523Y-41593333D01*
X96781904Y-41545714D01*
X96734285Y-41450476D01*
X96734285Y-41402857D01*
X96781904Y-41307619D01*
X96829523Y-41260000D01*
X96924761Y-41212380D01*
X97115238Y-41212380D01*
X97210476Y-41260000D01*
X97258095Y-41307619D01*
X97305714Y-41402857D01*
X97305714Y-41450476D01*
X97258095Y-41545714D01*
X97210476Y-41593333D01*
X97115238Y-41640952D01*
X96924761Y-41640952D01*
X96829523Y-41688571D01*
X96781904Y-41736190D01*
X96734285Y-41831428D01*
X96734285Y-42021904D01*
X96781904Y-42117142D01*
X96829523Y-42164761D01*
X96924761Y-42212380D01*
X97115238Y-42212380D01*
X97210476Y-42164761D01*
X97258095Y-42117142D01*
X97305714Y-42021904D01*
X97305714Y-41831428D01*
X97258095Y-41736190D01*
X97210476Y-41688571D01*
X97115238Y-41640952D01*
%TO.C,D9*%
X31011904Y-62532380D02*
X31011904Y-61532380D01*
X31250000Y-61532380D01*
X31392857Y-61580000D01*
X31488095Y-61675238D01*
X31535714Y-61770476D01*
X31583333Y-61960952D01*
X31583333Y-62103809D01*
X31535714Y-62294285D01*
X31488095Y-62389523D01*
X31392857Y-62484761D01*
X31250000Y-62532380D01*
X31011904Y-62532380D01*
X32059523Y-62532380D02*
X32250000Y-62532380D01*
X32345238Y-62484761D01*
X32392857Y-62437142D01*
X32488095Y-62294285D01*
X32535714Y-62103809D01*
X32535714Y-61722857D01*
X32488095Y-61627619D01*
X32440476Y-61580000D01*
X32345238Y-61532380D01*
X32154761Y-61532380D01*
X32059523Y-61580000D01*
X32011904Y-61627619D01*
X31964285Y-61722857D01*
X31964285Y-61960952D01*
X32011904Y-62056190D01*
X32059523Y-62103809D01*
X32154761Y-62151428D01*
X32345238Y-62151428D01*
X32440476Y-62103809D01*
X32488095Y-62056190D01*
X32535714Y-61960952D01*
%TO.C,D10*%
X52125714Y-62532380D02*
X52125714Y-61532380D01*
X52363809Y-61532380D01*
X52506666Y-61580000D01*
X52601904Y-61675238D01*
X52649523Y-61770476D01*
X52697142Y-61960952D01*
X52697142Y-62103809D01*
X52649523Y-62294285D01*
X52601904Y-62389523D01*
X52506666Y-62484761D01*
X52363809Y-62532380D01*
X52125714Y-62532380D01*
X53649523Y-62532380D02*
X53078095Y-62532380D01*
X53363809Y-62532380D02*
X53363809Y-61532380D01*
X53268571Y-61675238D01*
X53173333Y-61770476D01*
X53078095Y-61818095D01*
X54268571Y-61532380D02*
X54363809Y-61532380D01*
X54459047Y-61580000D01*
X54506666Y-61627619D01*
X54554285Y-61722857D01*
X54601904Y-61913333D01*
X54601904Y-62151428D01*
X54554285Y-62341904D01*
X54506666Y-62437142D01*
X54459047Y-62484761D01*
X54363809Y-62532380D01*
X54268571Y-62532380D01*
X54173333Y-62484761D01*
X54125714Y-62437142D01*
X54078095Y-62341904D01*
X54030476Y-62151428D01*
X54030476Y-61913333D01*
X54078095Y-61722857D01*
X54125714Y-61627619D01*
X54173333Y-61580000D01*
X54268571Y-61532380D01*
%TO.C,D11*%
X73715714Y-62532380D02*
X73715714Y-61532380D01*
X73953809Y-61532380D01*
X74096666Y-61580000D01*
X74191904Y-61675238D01*
X74239523Y-61770476D01*
X74287142Y-61960952D01*
X74287142Y-62103809D01*
X74239523Y-62294285D01*
X74191904Y-62389523D01*
X74096666Y-62484761D01*
X73953809Y-62532380D01*
X73715714Y-62532380D01*
X75239523Y-62532380D02*
X74668095Y-62532380D01*
X74953809Y-62532380D02*
X74953809Y-61532380D01*
X74858571Y-61675238D01*
X74763333Y-61770476D01*
X74668095Y-61818095D01*
X76191904Y-62532380D02*
X75620476Y-62532380D01*
X75906190Y-62532380D02*
X75906190Y-61532380D01*
X75810952Y-61675238D01*
X75715714Y-61770476D01*
X75620476Y-61818095D01*
%TO.C,D12*%
X95305714Y-62532380D02*
X95305714Y-61532380D01*
X95543809Y-61532380D01*
X95686666Y-61580000D01*
X95781904Y-61675238D01*
X95829523Y-61770476D01*
X95877142Y-61960952D01*
X95877142Y-62103809D01*
X95829523Y-62294285D01*
X95781904Y-62389523D01*
X95686666Y-62484761D01*
X95543809Y-62532380D01*
X95305714Y-62532380D01*
X96829523Y-62532380D02*
X96258095Y-62532380D01*
X96543809Y-62532380D02*
X96543809Y-61532380D01*
X96448571Y-61675238D01*
X96353333Y-61770476D01*
X96258095Y-61818095D01*
X97210476Y-61627619D02*
X97258095Y-61580000D01*
X97353333Y-61532380D01*
X97591428Y-61532380D01*
X97686666Y-61580000D01*
X97734285Y-61627619D01*
X97781904Y-61722857D01*
X97781904Y-61818095D01*
X97734285Y-61960952D01*
X97162857Y-62532380D01*
X97781904Y-62532380D01*
%TO.C,SW1*%
X30416666Y-28090761D02*
X30559523Y-28138380D01*
X30797619Y-28138380D01*
X30892857Y-28090761D01*
X30940476Y-28043142D01*
X30988095Y-27947904D01*
X30988095Y-27852666D01*
X30940476Y-27757428D01*
X30892857Y-27709809D01*
X30797619Y-27662190D01*
X30607142Y-27614571D01*
X30511904Y-27566952D01*
X30464285Y-27519333D01*
X30416666Y-27424095D01*
X30416666Y-27328857D01*
X30464285Y-27233619D01*
X30511904Y-27186000D01*
X30607142Y-27138380D01*
X30845238Y-27138380D01*
X30988095Y-27186000D01*
X31321428Y-27138380D02*
X31559523Y-28138380D01*
X31750000Y-27424095D01*
X31940476Y-28138380D01*
X32178571Y-27138380D01*
X33083333Y-28138380D02*
X32511904Y-28138380D01*
X32797619Y-28138380D02*
X32797619Y-27138380D01*
X32702380Y-27281238D01*
X32607142Y-27376476D01*
X32511904Y-27424095D01*
%TO.C,SW2*%
X52006666Y-28090761D02*
X52149523Y-28138380D01*
X52387619Y-28138380D01*
X52482857Y-28090761D01*
X52530476Y-28043142D01*
X52578095Y-27947904D01*
X52578095Y-27852666D01*
X52530476Y-27757428D01*
X52482857Y-27709809D01*
X52387619Y-27662190D01*
X52197142Y-27614571D01*
X52101904Y-27566952D01*
X52054285Y-27519333D01*
X52006666Y-27424095D01*
X52006666Y-27328857D01*
X52054285Y-27233619D01*
X52101904Y-27186000D01*
X52197142Y-27138380D01*
X52435238Y-27138380D01*
X52578095Y-27186000D01*
X52911428Y-27138380D02*
X53149523Y-28138380D01*
X53340000Y-27424095D01*
X53530476Y-28138380D01*
X53768571Y-27138380D01*
X54101904Y-27233619D02*
X54149523Y-27186000D01*
X54244761Y-27138380D01*
X54482857Y-27138380D01*
X54578095Y-27186000D01*
X54625714Y-27233619D01*
X54673333Y-27328857D01*
X54673333Y-27424095D01*
X54625714Y-27566952D01*
X54054285Y-28138380D01*
X54673333Y-28138380D01*
%TO.C,SW3*%
X73596666Y-28090761D02*
X73739523Y-28138380D01*
X73977619Y-28138380D01*
X74072857Y-28090761D01*
X74120476Y-28043142D01*
X74168095Y-27947904D01*
X74168095Y-27852666D01*
X74120476Y-27757428D01*
X74072857Y-27709809D01*
X73977619Y-27662190D01*
X73787142Y-27614571D01*
X73691904Y-27566952D01*
X73644285Y-27519333D01*
X73596666Y-27424095D01*
X73596666Y-27328857D01*
X73644285Y-27233619D01*
X73691904Y-27186000D01*
X73787142Y-27138380D01*
X74025238Y-27138380D01*
X74168095Y-27186000D01*
X74501428Y-27138380D02*
X74739523Y-28138380D01*
X74930000Y-27424095D01*
X75120476Y-28138380D01*
X75358571Y-27138380D01*
X75644285Y-27138380D02*
X76263333Y-27138380D01*
X75930000Y-27519333D01*
X76072857Y-27519333D01*
X76168095Y-27566952D01*
X76215714Y-27614571D01*
X76263333Y-27709809D01*
X76263333Y-27947904D01*
X76215714Y-28043142D01*
X76168095Y-28090761D01*
X76072857Y-28138380D01*
X75787142Y-28138380D01*
X75691904Y-28090761D01*
X75644285Y-28043142D01*
%TO.C,SW4*%
X95186666Y-28090761D02*
X95329523Y-28138380D01*
X95567619Y-28138380D01*
X95662857Y-28090761D01*
X95710476Y-28043142D01*
X95758095Y-27947904D01*
X95758095Y-27852666D01*
X95710476Y-27757428D01*
X95662857Y-27709809D01*
X95567619Y-27662190D01*
X95377142Y-27614571D01*
X95281904Y-27566952D01*
X95234285Y-27519333D01*
X95186666Y-27424095D01*
X95186666Y-27328857D01*
X95234285Y-27233619D01*
X95281904Y-27186000D01*
X95377142Y-27138380D01*
X95615238Y-27138380D01*
X95758095Y-27186000D01*
X96091428Y-27138380D02*
X96329523Y-28138380D01*
X96520000Y-27424095D01*
X96710476Y-28138380D01*
X96948571Y-27138380D01*
X97758095Y-27471714D02*
X97758095Y-28138380D01*
X97520000Y-27090761D02*
X97281904Y-27805047D01*
X97900952Y-27805047D01*
%TO.C,SW5*%
X30416666Y-48410761D02*
X30559523Y-48458380D01*
X30797619Y-48458380D01*
X30892857Y-48410761D01*
X30940476Y-48363142D01*
X30988095Y-48267904D01*
X30988095Y-48172666D01*
X30940476Y-48077428D01*
X30892857Y-48029809D01*
X30797619Y-47982190D01*
X30607142Y-47934571D01*
X30511904Y-47886952D01*
X30464285Y-47839333D01*
X30416666Y-47744095D01*
X30416666Y-47648857D01*
X30464285Y-47553619D01*
X30511904Y-47506000D01*
X30607142Y-47458380D01*
X30845238Y-47458380D01*
X30988095Y-47506000D01*
X31321428Y-47458380D02*
X31559523Y-48458380D01*
X31750000Y-47744095D01*
X31940476Y-48458380D01*
X32178571Y-47458380D01*
X33035714Y-47458380D02*
X32559523Y-47458380D01*
X32511904Y-47934571D01*
X32559523Y-47886952D01*
X32654761Y-47839333D01*
X32892857Y-47839333D01*
X32988095Y-47886952D01*
X33035714Y-47934571D01*
X33083333Y-48029809D01*
X33083333Y-48267904D01*
X33035714Y-48363142D01*
X32988095Y-48410761D01*
X32892857Y-48458380D01*
X32654761Y-48458380D01*
X32559523Y-48410761D01*
X32511904Y-48363142D01*
%TO.C,SW6*%
X52006666Y-48410761D02*
X52149523Y-48458380D01*
X52387619Y-48458380D01*
X52482857Y-48410761D01*
X52530476Y-48363142D01*
X52578095Y-48267904D01*
X52578095Y-48172666D01*
X52530476Y-48077428D01*
X52482857Y-48029809D01*
X52387619Y-47982190D01*
X52197142Y-47934571D01*
X52101904Y-47886952D01*
X52054285Y-47839333D01*
X52006666Y-47744095D01*
X52006666Y-47648857D01*
X52054285Y-47553619D01*
X52101904Y-47506000D01*
X52197142Y-47458380D01*
X52435238Y-47458380D01*
X52578095Y-47506000D01*
X52911428Y-47458380D02*
X53149523Y-48458380D01*
X53340000Y-47744095D01*
X53530476Y-48458380D01*
X53768571Y-47458380D01*
X54578095Y-47458380D02*
X54387619Y-47458380D01*
X54292380Y-47506000D01*
X54244761Y-47553619D01*
X54149523Y-47696476D01*
X54101904Y-47886952D01*
X54101904Y-48267904D01*
X54149523Y-48363142D01*
X54197142Y-48410761D01*
X54292380Y-48458380D01*
X54482857Y-48458380D01*
X54578095Y-48410761D01*
X54625714Y-48363142D01*
X54673333Y-48267904D01*
X54673333Y-48029809D01*
X54625714Y-47934571D01*
X54578095Y-47886952D01*
X54482857Y-47839333D01*
X54292380Y-47839333D01*
X54197142Y-47886952D01*
X54149523Y-47934571D01*
X54101904Y-48029809D01*
%TO.C,SW7*%
X73596666Y-48410761D02*
X73739523Y-48458380D01*
X73977619Y-48458380D01*
X74072857Y-48410761D01*
X74120476Y-48363142D01*
X74168095Y-48267904D01*
X74168095Y-48172666D01*
X74120476Y-48077428D01*
X74072857Y-48029809D01*
X73977619Y-47982190D01*
X73787142Y-47934571D01*
X73691904Y-47886952D01*
X73644285Y-47839333D01*
X73596666Y-47744095D01*
X73596666Y-47648857D01*
X73644285Y-47553619D01*
X73691904Y-47506000D01*
X73787142Y-47458380D01*
X74025238Y-47458380D01*
X74168095Y-47506000D01*
X74501428Y-47458380D02*
X74739523Y-48458380D01*
X74930000Y-47744095D01*
X75120476Y-48458380D01*
X75358571Y-47458380D01*
X75644285Y-47458380D02*
X76310952Y-47458380D01*
X75882380Y-48458380D01*
%TO.C,SW8*%
X95186666Y-48410761D02*
X95329523Y-48458380D01*
X95567619Y-48458380D01*
X95662857Y-48410761D01*
X95710476Y-48363142D01*
X95758095Y-48267904D01*
X95758095Y-48172666D01*
X95710476Y-48077428D01*
X95662857Y-48029809D01*
X95567619Y-47982190D01*
X95377142Y-47934571D01*
X95281904Y-47886952D01*
X95234285Y-47839333D01*
X95186666Y-47744095D01*
X95186666Y-47648857D01*
X95234285Y-47553619D01*
X95281904Y-47506000D01*
X95377142Y-47458380D01*
X95615238Y-47458380D01*
X95758095Y-47506000D01*
X96091428Y-47458380D02*
X96329523Y-48458380D01*
X96520000Y-47744095D01*
X96710476Y-48458380D01*
X96948571Y-47458380D01*
X97472380Y-47886952D02*
X97377142Y-47839333D01*
X97329523Y-47791714D01*
X97281904Y-47696476D01*
X97281904Y-47648857D01*
X97329523Y-47553619D01*
X97377142Y-47506000D01*
X97472380Y-47458380D01*
X97662857Y-47458380D01*
X97758095Y-47506000D01*
X97805714Y-47553619D01*
X97853333Y-47648857D01*
X97853333Y-47696476D01*
X97805714Y-47791714D01*
X97758095Y-47839333D01*
X97662857Y-47886952D01*
X97472380Y-47886952D01*
X97377142Y-47934571D01*
X97329523Y-47982190D01*
X97281904Y-48077428D01*
X97281904Y-48267904D01*
X97329523Y-48363142D01*
X97377142Y-48410761D01*
X97472380Y-48458380D01*
X97662857Y-48458380D01*
X97758095Y-48410761D01*
X97805714Y-48363142D01*
X97853333Y-48267904D01*
X97853333Y-48077428D01*
X97805714Y-47982190D01*
X97758095Y-47934571D01*
X97662857Y-47886952D01*
%TO.C,SW9*%
X30416666Y-68730761D02*
X30559523Y-68778380D01*
X30797619Y-68778380D01*
X30892857Y-68730761D01*
X30940476Y-68683142D01*
X30988095Y-68587904D01*
X30988095Y-68492666D01*
X30940476Y-68397428D01*
X30892857Y-68349809D01*
X30797619Y-68302190D01*
X30607142Y-68254571D01*
X30511904Y-68206952D01*
X30464285Y-68159333D01*
X30416666Y-68064095D01*
X30416666Y-67968857D01*
X30464285Y-67873619D01*
X30511904Y-67826000D01*
X30607142Y-67778380D01*
X30845238Y-67778380D01*
X30988095Y-67826000D01*
X31321428Y-67778380D02*
X31559523Y-68778380D01*
X31750000Y-68064095D01*
X31940476Y-68778380D01*
X32178571Y-67778380D01*
X32607142Y-68778380D02*
X32797619Y-68778380D01*
X32892857Y-68730761D01*
X32940476Y-68683142D01*
X33035714Y-68540285D01*
X33083333Y-68349809D01*
X33083333Y-67968857D01*
X33035714Y-67873619D01*
X32988095Y-67826000D01*
X32892857Y-67778380D01*
X32702380Y-67778380D01*
X32607142Y-67826000D01*
X32559523Y-67873619D01*
X32511904Y-67968857D01*
X32511904Y-68206952D01*
X32559523Y-68302190D01*
X32607142Y-68349809D01*
X32702380Y-68397428D01*
X32892857Y-68397428D01*
X32988095Y-68349809D01*
X33035714Y-68302190D01*
X33083333Y-68206952D01*
%TO.C,SW10*%
X51530476Y-68730761D02*
X51673333Y-68778380D01*
X51911428Y-68778380D01*
X52006666Y-68730761D01*
X52054285Y-68683142D01*
X52101904Y-68587904D01*
X52101904Y-68492666D01*
X52054285Y-68397428D01*
X52006666Y-68349809D01*
X51911428Y-68302190D01*
X51720952Y-68254571D01*
X51625714Y-68206952D01*
X51578095Y-68159333D01*
X51530476Y-68064095D01*
X51530476Y-67968857D01*
X51578095Y-67873619D01*
X51625714Y-67826000D01*
X51720952Y-67778380D01*
X51959047Y-67778380D01*
X52101904Y-67826000D01*
X52435238Y-67778380D02*
X52673333Y-68778380D01*
X52863809Y-68064095D01*
X53054285Y-68778380D01*
X53292380Y-67778380D01*
X54197142Y-68778380D02*
X53625714Y-68778380D01*
X53911428Y-68778380D02*
X53911428Y-67778380D01*
X53816190Y-67921238D01*
X53720952Y-68016476D01*
X53625714Y-68064095D01*
X54816190Y-67778380D02*
X54911428Y-67778380D01*
X55006666Y-67826000D01*
X55054285Y-67873619D01*
X55101904Y-67968857D01*
X55149523Y-68159333D01*
X55149523Y-68397428D01*
X55101904Y-68587904D01*
X55054285Y-68683142D01*
X55006666Y-68730761D01*
X54911428Y-68778380D01*
X54816190Y-68778380D01*
X54720952Y-68730761D01*
X54673333Y-68683142D01*
X54625714Y-68587904D01*
X54578095Y-68397428D01*
X54578095Y-68159333D01*
X54625714Y-67968857D01*
X54673333Y-67873619D01*
X54720952Y-67826000D01*
X54816190Y-67778380D01*
%TO.C,SW11*%
X73120476Y-68730761D02*
X73263333Y-68778380D01*
X73501428Y-68778380D01*
X73596666Y-68730761D01*
X73644285Y-68683142D01*
X73691904Y-68587904D01*
X73691904Y-68492666D01*
X73644285Y-68397428D01*
X73596666Y-68349809D01*
X73501428Y-68302190D01*
X73310952Y-68254571D01*
X73215714Y-68206952D01*
X73168095Y-68159333D01*
X73120476Y-68064095D01*
X73120476Y-67968857D01*
X73168095Y-67873619D01*
X73215714Y-67826000D01*
X73310952Y-67778380D01*
X73549047Y-67778380D01*
X73691904Y-67826000D01*
X74025238Y-67778380D02*
X74263333Y-68778380D01*
X74453809Y-68064095D01*
X74644285Y-68778380D01*
X74882380Y-67778380D01*
X75787142Y-68778380D02*
X75215714Y-68778380D01*
X75501428Y-68778380D02*
X75501428Y-67778380D01*
X75406190Y-67921238D01*
X75310952Y-68016476D01*
X75215714Y-68064095D01*
X76739523Y-68778380D02*
X76168095Y-68778380D01*
X76453809Y-68778380D02*
X76453809Y-67778380D01*
X76358571Y-67921238D01*
X76263333Y-68016476D01*
X76168095Y-68064095D01*
%TO.C,SW12*%
X94710476Y-68730761D02*
X94853333Y-68778380D01*
X95091428Y-68778380D01*
X95186666Y-68730761D01*
X95234285Y-68683142D01*
X95281904Y-68587904D01*
X95281904Y-68492666D01*
X95234285Y-68397428D01*
X95186666Y-68349809D01*
X95091428Y-68302190D01*
X94900952Y-68254571D01*
X94805714Y-68206952D01*
X94758095Y-68159333D01*
X94710476Y-68064095D01*
X94710476Y-67968857D01*
X94758095Y-67873619D01*
X94805714Y-67826000D01*
X94900952Y-67778380D01*
X95139047Y-67778380D01*
X95281904Y-67826000D01*
X95615238Y-67778380D02*
X95853333Y-68778380D01*
X96043809Y-68064095D01*
X96234285Y-68778380D01*
X96472380Y-67778380D01*
X97377142Y-68778380D02*
X96805714Y-68778380D01*
X97091428Y-68778380D02*
X97091428Y-67778380D01*
X96996190Y-67921238D01*
X96900952Y-68016476D01*
X96805714Y-68064095D01*
X97758095Y-67873619D02*
X97805714Y-67826000D01*
X97900952Y-67778380D01*
X98139047Y-67778380D01*
X98234285Y-67826000D01*
X98281904Y-67873619D01*
X98329523Y-67968857D01*
X98329523Y-68064095D01*
X98281904Y-68206952D01*
X97710476Y-68778380D01*
X98329523Y-68778380D01*
%TD*%
M02*
