M48
; DRILL file {KiCad (5.1.9)-1} date 02/21/21 17:06:45
; FORMAT={-:-/ absolute / inch / decimal}
; #@! TF.CreationDate,2021-02-21T17:06:45+00:00
; #@! TF.GenerationSoftware,Kicad,Pcbnew,(5.1.9)-1
; #@! TF.FileFunction,Plated,1,2,PTH
FMAT,2
INCH
T1C0.0157
T2C0.0315
T3C0.0354
T4C0.0402
T5C0.0591
%
G90
G05
T1
X1.4Y-1.4
X1.5Y-2.05
X1.6Y-2.1
X1.65Y-2.45
X1.7Y-1.65
X1.7Y-1.75
X1.7Y-2.8
X1.8Y-2.05
X1.8Y-2.1
X1.8551Y-1.6
X1.9Y-1.5
X1.9Y-1.55
X1.9Y-2.7984
X2.0Y-1.1
X2.0Y-1.5
X2.0Y-2.4
X2.0905Y-1.8905
X2.15Y-2.45
X2.25Y-1.9
X2.25Y-2.3
X2.25Y-2.55
X2.3Y-2.0276
X2.3483Y-1.6715
X2.35Y-2.8
X2.4Y-1.7
X2.4Y-2.0
X2.4Y-2.15
X2.6748Y-2.55
X2.75Y-2.3
X2.85Y-1.55
X2.95Y-2.3024
T2
X1.5Y-1.2
X1.5Y-1.3
X1.5Y-1.4
X1.5Y-1.5
X1.5Y-1.6
X1.5Y-1.7
X1.5Y-1.8
X1.5Y-1.9
X1.5Y-2.35
X1.5Y-2.45
X1.5Y-2.55
X1.5Y-2.65
X1.5Y-2.75
X1.5Y-2.85
X1.5Y-2.95
X1.5Y-3.05
X1.8Y-1.2
X1.8Y-1.3
X1.8Y-1.4
X1.8Y-1.5
X1.8Y-1.6
X1.8Y-1.7
X1.8Y-1.8
X1.8Y-1.9
X1.8Y-2.35
X1.8Y-2.45
X1.8Y-2.55
X1.8Y-2.65
X1.8Y-2.75
X1.8Y-2.85
X1.8Y-2.95
X1.8Y-3.05
T3
X1.2Y-1.0
X1.2Y-1.8
X1.2Y-2.6
X1.3Y-1.0
X1.3Y-1.8
X1.3Y-2.6
X2.05Y-1.0
X2.05Y-1.8
X2.05Y-2.6
X2.15Y-1.0
X2.15Y-1.8
X2.15Y-2.6
X2.9Y-1.0
X2.9Y-1.8
X2.9Y-2.6
X3.0Y-1.0
X3.0Y-1.8
X3.0Y-2.6
X3.75Y-1.0
X3.75Y-1.8
X3.75Y-2.6
X3.85Y-1.0
X3.85Y-1.8
X3.85Y-2.6
T4
X2.6Y-1.2
X2.6Y-1.3
X2.6Y-1.4
X2.6Y-1.5
X2.6Y-1.6
X2.6Y-1.7
X2.6Y-1.8
X2.6Y-1.9
X2.6Y-2.0
X2.6Y-2.1
X2.6Y-2.2
X2.6Y-2.3
X2.6Y-2.4
X2.6Y-2.5
X2.6Y-2.6
X2.6Y-2.7
X2.6Y-2.8
X2.6Y-2.9
X2.6Y-3.0
X2.6Y-3.1
X3.3Y-1.2
X3.3Y-1.3
X3.3Y-1.4
X3.3Y-1.5
X3.3Y-1.6
X3.3Y-1.7
X3.3Y-1.8
X3.3Y-1.9
X3.3Y-2.0
X3.3Y-2.1
X3.3Y-2.2
X3.3Y-2.3
X3.3Y-2.4
X3.3Y-2.5
X3.3Y-2.6
X3.3Y-2.7
X3.3Y-2.8
X3.3Y-2.9
X3.3Y-3.0
X3.3Y-3.1
T5
X1.1Y-1.3
X1.1Y-2.1
X1.1Y-2.9
X1.35Y-1.2
X1.35Y-2.0
X1.35Y-2.8
X1.95Y-1.3
X1.95Y-2.1
X1.95Y-2.9
X2.2Y-1.2
X2.2Y-2.0
X2.2Y-2.8
X2.8Y-1.3
X2.8Y-2.1
X2.8Y-2.9
X3.05Y-1.2
X3.05Y-2.0
X3.05Y-2.8
X3.65Y-1.3
X3.65Y-2.1
X3.65Y-2.9
X3.9Y-1.2
X3.9Y-2.0
X3.9Y-2.8
T0
M30
