%TF.GenerationSoftware,KiCad,Pcbnew,(5.1.9)-1*%
%TF.CreationDate,2021-02-21T16:58:34+00:00*%
%TF.ProjectId,PicoProducer,5069636f-5072-46f6-9475-6365722e6b69,rev?*%
%TF.SameCoordinates,Original*%
%TF.FileFunction,Legend,Bot*%
%TF.FilePolarity,Positive*%
%FSLAX46Y46*%
G04 Gerber Fmt 4.6, Leading zero omitted, Abs format (unit mm)*
G04 Created by KiCad (PCBNEW (5.1.9)-1) date 2021-02-21 16:58:34*
%MOMM*%
%LPD*%
G01*
G04 APERTURE LIST*
%ADD10C,0.150000*%
%ADD11C,0.120000*%
G04 APERTURE END LIST*
D10*
X102988571Y-82526190D02*
X103036190Y-82478571D01*
X103131428Y-82430952D01*
X103226666Y-82430952D01*
X103321904Y-82478571D01*
X103369523Y-82526190D01*
X103417142Y-82621428D01*
X103417142Y-82716666D01*
X103369523Y-82811904D01*
X103321904Y-82859523D01*
X103226666Y-82907142D01*
X103131428Y-82907142D01*
X103036190Y-82859523D01*
X102988571Y-82811904D01*
X102988571Y-82430952D02*
X102988571Y-82811904D01*
X102940952Y-82859523D01*
X102893333Y-82859523D01*
X102798095Y-82811904D01*
X102750476Y-82716666D01*
X102750476Y-82478571D01*
X102845714Y-82335714D01*
X102988571Y-82240476D01*
X103179047Y-82192857D01*
X103369523Y-82240476D01*
X103512380Y-82335714D01*
X103607619Y-82478571D01*
X103655238Y-82669047D01*
X103607619Y-82859523D01*
X103512380Y-83002380D01*
X103369523Y-83097619D01*
X103179047Y-83145238D01*
X102988571Y-83097619D01*
X102845714Y-83002380D01*
X102321904Y-82335714D02*
X102321904Y-83335714D01*
X102321904Y-82383333D02*
X102226666Y-82335714D01*
X102036190Y-82335714D01*
X101940952Y-82383333D01*
X101893333Y-82430952D01*
X101845714Y-82526190D01*
X101845714Y-82811904D01*
X101893333Y-82907142D01*
X101940952Y-82954761D01*
X102036190Y-83002380D01*
X102226666Y-83002380D01*
X102321904Y-82954761D01*
X101036190Y-82954761D02*
X101131428Y-83002380D01*
X101321904Y-83002380D01*
X101417142Y-82954761D01*
X101464761Y-82859523D01*
X101464761Y-82478571D01*
X101417142Y-82383333D01*
X101321904Y-82335714D01*
X101131428Y-82335714D01*
X101036190Y-82383333D01*
X100988571Y-82478571D01*
X100988571Y-82573809D01*
X101464761Y-82669047D01*
X100702857Y-82335714D02*
X100321904Y-82335714D01*
X100560000Y-82002380D02*
X100560000Y-82859523D01*
X100512380Y-82954761D01*
X100417142Y-83002380D01*
X100321904Y-83002380D01*
X99607619Y-82954761D02*
X99702857Y-83002380D01*
X99893333Y-83002380D01*
X99988571Y-82954761D01*
X100036190Y-82859523D01*
X100036190Y-82478571D01*
X99988571Y-82383333D01*
X99893333Y-82335714D01*
X99702857Y-82335714D01*
X99607619Y-82383333D01*
X99560000Y-82478571D01*
X99560000Y-82573809D01*
X100036190Y-82669047D01*
X99369523Y-83097619D02*
X98607619Y-83097619D01*
X97940952Y-82954761D02*
X98036190Y-83002380D01*
X98226666Y-83002380D01*
X98321904Y-82954761D01*
X98369523Y-82907142D01*
X98417142Y-82811904D01*
X98417142Y-82526190D01*
X98369523Y-82430952D01*
X98321904Y-82383333D01*
X98226666Y-82335714D01*
X98036190Y-82335714D01*
X97940952Y-82383333D01*
X97369523Y-83002380D02*
X97464761Y-82954761D01*
X97512380Y-82907142D01*
X97560000Y-82811904D01*
X97560000Y-82526190D01*
X97512380Y-82430952D01*
X97464761Y-82383333D01*
X97369523Y-82335714D01*
X97226666Y-82335714D01*
X97131428Y-82383333D01*
X97083809Y-82430952D01*
X97036190Y-82526190D01*
X97036190Y-82811904D01*
X97083809Y-82907142D01*
X97131428Y-82954761D01*
X97226666Y-83002380D01*
X97369523Y-83002380D01*
X96179047Y-83002380D02*
X96179047Y-82002380D01*
X96179047Y-82954761D02*
X96274285Y-83002380D01*
X96464761Y-83002380D01*
X96560000Y-82954761D01*
X96607619Y-82907142D01*
X96655238Y-82811904D01*
X96655238Y-82526190D01*
X96607619Y-82430952D01*
X96560000Y-82383333D01*
X96464761Y-82335714D01*
X96274285Y-82335714D01*
X96179047Y-82383333D01*
X95321904Y-82954761D02*
X95417142Y-83002380D01*
X95607619Y-83002380D01*
X95702857Y-82954761D01*
X95750476Y-82859523D01*
X95750476Y-82478571D01*
X95702857Y-82383333D01*
X95607619Y-82335714D01*
X95417142Y-82335714D01*
X95321904Y-82383333D01*
X95274285Y-82478571D01*
X95274285Y-82573809D01*
X95750476Y-82669047D01*
X94893333Y-82954761D02*
X94798095Y-83002380D01*
X94607619Y-83002380D01*
X94512380Y-82954761D01*
X94464761Y-82859523D01*
X94464761Y-82811904D01*
X94512380Y-82716666D01*
X94607619Y-82669047D01*
X94750476Y-82669047D01*
X94845714Y-82621428D01*
X94893333Y-82526190D01*
X94893333Y-82478571D01*
X94845714Y-82383333D01*
X94750476Y-82335714D01*
X94607619Y-82335714D01*
X94512380Y-82383333D01*
X60775238Y-83002380D02*
X60775238Y-82002380D01*
X60394285Y-82002380D01*
X60299047Y-82050000D01*
X60251428Y-82097619D01*
X60203809Y-82192857D01*
X60203809Y-82335714D01*
X60251428Y-82430952D01*
X60299047Y-82478571D01*
X60394285Y-82526190D01*
X60775238Y-82526190D01*
X59775238Y-83002380D02*
X59775238Y-82335714D01*
X59775238Y-82002380D02*
X59822857Y-82050000D01*
X59775238Y-82097619D01*
X59727619Y-82050000D01*
X59775238Y-82002380D01*
X59775238Y-82097619D01*
X58870476Y-82954761D02*
X58965714Y-83002380D01*
X59156190Y-83002380D01*
X59251428Y-82954761D01*
X59299047Y-82907142D01*
X59346666Y-82811904D01*
X59346666Y-82526190D01*
X59299047Y-82430952D01*
X59251428Y-82383333D01*
X59156190Y-82335714D01*
X58965714Y-82335714D01*
X58870476Y-82383333D01*
X58299047Y-83002380D02*
X58394285Y-82954761D01*
X58441904Y-82907142D01*
X58489523Y-82811904D01*
X58489523Y-82526190D01*
X58441904Y-82430952D01*
X58394285Y-82383333D01*
X58299047Y-82335714D01*
X58156190Y-82335714D01*
X58060952Y-82383333D01*
X58013333Y-82430952D01*
X57965714Y-82526190D01*
X57965714Y-82811904D01*
X58013333Y-82907142D01*
X58060952Y-82954761D01*
X58156190Y-83002380D01*
X58299047Y-83002380D01*
X56775238Y-83002380D02*
X56775238Y-82002380D01*
X56394285Y-82002380D01*
X56299047Y-82050000D01*
X56251428Y-82097619D01*
X56203809Y-82192857D01*
X56203809Y-82335714D01*
X56251428Y-82430952D01*
X56299047Y-82478571D01*
X56394285Y-82526190D01*
X56775238Y-82526190D01*
X55775238Y-83002380D02*
X55775238Y-82335714D01*
X55775238Y-82526190D02*
X55727619Y-82430952D01*
X55680000Y-82383333D01*
X55584761Y-82335714D01*
X55489523Y-82335714D01*
X55013333Y-83002380D02*
X55108571Y-82954761D01*
X55156190Y-82907142D01*
X55203809Y-82811904D01*
X55203809Y-82526190D01*
X55156190Y-82430952D01*
X55108571Y-82383333D01*
X55013333Y-82335714D01*
X54870476Y-82335714D01*
X54775238Y-82383333D01*
X54727619Y-82430952D01*
X54680000Y-82526190D01*
X54680000Y-82811904D01*
X54727619Y-82907142D01*
X54775238Y-82954761D01*
X54870476Y-83002380D01*
X55013333Y-83002380D01*
X53822857Y-83002380D02*
X53822857Y-82002380D01*
X53822857Y-82954761D02*
X53918095Y-83002380D01*
X54108571Y-83002380D01*
X54203809Y-82954761D01*
X54251428Y-82907142D01*
X54299047Y-82811904D01*
X54299047Y-82526190D01*
X54251428Y-82430952D01*
X54203809Y-82383333D01*
X54108571Y-82335714D01*
X53918095Y-82335714D01*
X53822857Y-82383333D01*
X52918095Y-82335714D02*
X52918095Y-83002380D01*
X53346666Y-82335714D02*
X53346666Y-82859523D01*
X53299047Y-82954761D01*
X53203809Y-83002380D01*
X53060952Y-83002380D01*
X52965714Y-82954761D01*
X52918095Y-82907142D01*
X52013333Y-82954761D02*
X52108571Y-83002380D01*
X52299047Y-83002380D01*
X52394285Y-82954761D01*
X52441904Y-82907142D01*
X52489523Y-82811904D01*
X52489523Y-82526190D01*
X52441904Y-82430952D01*
X52394285Y-82383333D01*
X52299047Y-82335714D01*
X52108571Y-82335714D01*
X52013333Y-82383333D01*
X51203809Y-82954761D02*
X51299047Y-83002380D01*
X51489523Y-83002380D01*
X51584761Y-82954761D01*
X51632380Y-82859523D01*
X51632380Y-82478571D01*
X51584761Y-82383333D01*
X51489523Y-82335714D01*
X51299047Y-82335714D01*
X51203809Y-82383333D01*
X51156190Y-82478571D01*
X51156190Y-82573809D01*
X51632380Y-82669047D01*
X50727619Y-83002380D02*
X50727619Y-82335714D01*
X50727619Y-82526190D02*
X50680000Y-82430952D01*
X50632380Y-82383333D01*
X50537142Y-82335714D01*
X50441904Y-82335714D01*
X49489523Y-82002380D02*
X49156190Y-83002380D01*
X48822857Y-82002380D01*
X47965714Y-83002380D02*
X48537142Y-83002380D01*
X48251428Y-83002380D02*
X48251428Y-82002380D01*
X48346666Y-82145238D01*
X48441904Y-82240476D01*
X48537142Y-82288095D01*
X47537142Y-82907142D02*
X47489523Y-82954761D01*
X47537142Y-83002380D01*
X47584761Y-82954761D01*
X47537142Y-82907142D01*
X47537142Y-83002380D01*
X46870476Y-82002380D02*
X46775238Y-82002380D01*
X46680000Y-82050000D01*
X46632380Y-82097619D01*
X46584761Y-82192857D01*
X46537142Y-82383333D01*
X46537142Y-82621428D01*
X46584761Y-82811904D01*
X46632380Y-82907142D01*
X46680000Y-82954761D01*
X46775238Y-83002380D01*
X46870476Y-83002380D01*
X46965714Y-82954761D01*
X47013333Y-82907142D01*
X47060952Y-82811904D01*
X47108571Y-82621428D01*
X47108571Y-82383333D01*
X47060952Y-82192857D01*
X47013333Y-82097619D01*
X46965714Y-82050000D01*
X46870476Y-82002380D01*
X45346666Y-82621428D02*
X44584761Y-82621428D01*
X42537142Y-82240476D02*
X42632380Y-82192857D01*
X42822857Y-82192857D01*
X42918095Y-82240476D01*
X43013333Y-82335714D01*
X43060952Y-82430952D01*
X43060952Y-82621428D01*
X43013333Y-82716666D01*
X42918095Y-82811904D01*
X42822857Y-82859523D01*
X42632380Y-82859523D01*
X42537142Y-82811904D01*
X42727619Y-81859523D02*
X42965714Y-81907142D01*
X43203809Y-82050000D01*
X43346666Y-82288095D01*
X43394285Y-82526190D01*
X43346666Y-82764285D01*
X43203809Y-83002380D01*
X42965714Y-83145238D01*
X42727619Y-83192857D01*
X42489523Y-83145238D01*
X42251428Y-83002380D01*
X42108571Y-82764285D01*
X42060952Y-82526190D01*
X42108571Y-82288095D01*
X42251428Y-82050000D01*
X42489523Y-81907142D01*
X42727619Y-81859523D01*
X40870476Y-83002380D02*
X40870476Y-82002380D01*
X40489523Y-82002380D01*
X40394285Y-82050000D01*
X40346666Y-82097619D01*
X40299047Y-82192857D01*
X40299047Y-82335714D01*
X40346666Y-82430952D01*
X40394285Y-82478571D01*
X40489523Y-82526190D01*
X40870476Y-82526190D01*
X39489523Y-82954761D02*
X39584761Y-83002380D01*
X39775238Y-83002380D01*
X39870476Y-82954761D01*
X39918095Y-82859523D01*
X39918095Y-82478571D01*
X39870476Y-82383333D01*
X39775238Y-82335714D01*
X39584761Y-82335714D01*
X39489523Y-82383333D01*
X39441904Y-82478571D01*
X39441904Y-82573809D01*
X39918095Y-82669047D01*
X39156190Y-82335714D02*
X38775238Y-82335714D01*
X39013333Y-82002380D02*
X39013333Y-82859523D01*
X38965714Y-82954761D01*
X38870476Y-83002380D01*
X38775238Y-83002380D01*
X38060952Y-82954761D02*
X38156190Y-83002380D01*
X38346666Y-83002380D01*
X38441904Y-82954761D01*
X38489523Y-82859523D01*
X38489523Y-82478571D01*
X38441904Y-82383333D01*
X38346666Y-82335714D01*
X38156190Y-82335714D01*
X38060952Y-82383333D01*
X38013333Y-82478571D01*
X38013333Y-82573809D01*
X38489523Y-82669047D01*
X36299047Y-82050000D02*
X36394285Y-82002380D01*
X36537142Y-82002380D01*
X36680000Y-82050000D01*
X36775238Y-82145238D01*
X36822857Y-82240476D01*
X36870476Y-82430952D01*
X36870476Y-82573809D01*
X36822857Y-82764285D01*
X36775238Y-82859523D01*
X36680000Y-82954761D01*
X36537142Y-83002380D01*
X36441904Y-83002380D01*
X36299047Y-82954761D01*
X36251428Y-82907142D01*
X36251428Y-82573809D01*
X36441904Y-82573809D01*
X35394285Y-83002380D02*
X35394285Y-82478571D01*
X35441904Y-82383333D01*
X35537142Y-82335714D01*
X35727619Y-82335714D01*
X35822857Y-82383333D01*
X35394285Y-82954761D02*
X35489523Y-83002380D01*
X35727619Y-83002380D01*
X35822857Y-82954761D01*
X35870476Y-82859523D01*
X35870476Y-82764285D01*
X35822857Y-82669047D01*
X35727619Y-82621428D01*
X35489523Y-82621428D01*
X35394285Y-82573809D01*
X34775238Y-83002380D02*
X34870476Y-82954761D01*
X34918095Y-82859523D01*
X34918095Y-82002380D01*
X34251428Y-83002380D02*
X34346666Y-82954761D01*
X34394285Y-82859523D01*
X34394285Y-82002380D01*
X33441904Y-83002380D02*
X33441904Y-82478571D01*
X33489523Y-82383333D01*
X33584761Y-82335714D01*
X33775238Y-82335714D01*
X33870476Y-82383333D01*
X33441904Y-82954761D02*
X33537142Y-83002380D01*
X33775238Y-83002380D01*
X33870476Y-82954761D01*
X33918095Y-82859523D01*
X33918095Y-82764285D01*
X33870476Y-82669047D01*
X33775238Y-82621428D01*
X33537142Y-82621428D01*
X33441904Y-82573809D01*
X32537142Y-82335714D02*
X32537142Y-83145238D01*
X32584761Y-83240476D01*
X32632380Y-83288095D01*
X32727619Y-83335714D01*
X32870476Y-83335714D01*
X32965714Y-83288095D01*
X32537142Y-82954761D02*
X32632380Y-83002380D01*
X32822857Y-83002380D01*
X32918095Y-82954761D01*
X32965714Y-82907142D01*
X33013333Y-82811904D01*
X33013333Y-82526190D01*
X32965714Y-82430952D01*
X32918095Y-82383333D01*
X32822857Y-82335714D01*
X32632380Y-82335714D01*
X32537142Y-82383333D01*
X32060952Y-83002380D02*
X32060952Y-82002380D01*
X31632380Y-83002380D02*
X31632380Y-82478571D01*
X31680000Y-82383333D01*
X31775238Y-82335714D01*
X31918095Y-82335714D01*
X32013333Y-82383333D01*
X32060952Y-82430952D01*
X30775238Y-82954761D02*
X30870476Y-83002380D01*
X31060952Y-83002380D01*
X31156190Y-82954761D01*
X31203809Y-82859523D01*
X31203809Y-82478571D01*
X31156190Y-82383333D01*
X31060952Y-82335714D01*
X30870476Y-82335714D01*
X30775238Y-82383333D01*
X30727619Y-82478571D01*
X30727619Y-82573809D01*
X31203809Y-82669047D01*
X30299047Y-83002380D02*
X30299047Y-82335714D01*
X30299047Y-82526190D02*
X30251428Y-82430952D01*
X30203809Y-82383333D01*
X30108571Y-82335714D01*
X30013333Y-82335714D01*
X28965714Y-82097619D02*
X28918095Y-82050000D01*
X28822857Y-82002380D01*
X28584761Y-82002380D01*
X28489523Y-82050000D01*
X28441904Y-82097619D01*
X28394285Y-82192857D01*
X28394285Y-82288095D01*
X28441904Y-82430952D01*
X29013333Y-83002380D01*
X28394285Y-83002380D01*
X27775238Y-82002380D02*
X27680000Y-82002380D01*
X27584761Y-82050000D01*
X27537142Y-82097619D01*
X27489523Y-82192857D01*
X27441904Y-82383333D01*
X27441904Y-82621428D01*
X27489523Y-82811904D01*
X27537142Y-82907142D01*
X27584761Y-82954761D01*
X27680000Y-83002380D01*
X27775238Y-83002380D01*
X27870476Y-82954761D01*
X27918095Y-82907142D01*
X27965714Y-82811904D01*
X28013333Y-82621428D01*
X28013333Y-82383333D01*
X27965714Y-82192857D01*
X27918095Y-82097619D01*
X27870476Y-82050000D01*
X27775238Y-82002380D01*
X27060952Y-82097619D02*
X27013333Y-82050000D01*
X26918095Y-82002380D01*
X26680000Y-82002380D01*
X26584761Y-82050000D01*
X26537142Y-82097619D01*
X26489523Y-82192857D01*
X26489523Y-82288095D01*
X26537142Y-82430952D01*
X27108571Y-83002380D01*
X26489523Y-83002380D01*
X25537142Y-83002380D02*
X26108571Y-83002380D01*
X25822857Y-83002380D02*
X25822857Y-82002380D01*
X25918095Y-82145238D01*
X26013333Y-82240476D01*
X26108571Y-82288095D01*
D11*
%TO.C,RN1*%
X42910000Y-29150000D02*
X44560000Y-29150000D01*
X44560000Y-29150000D02*
X44560000Y-49590000D01*
X44560000Y-49590000D02*
X39260000Y-49590000D01*
X39260000Y-49590000D02*
X39260000Y-29150000D01*
X39260000Y-29150000D02*
X40910000Y-29150000D01*
X40910000Y-29150000D02*
G75*
G03*
X42910000Y-29150000I1000000J0D01*
G01*
%TO.C,RN2*%
X42910000Y-58360000D02*
X44560000Y-58360000D01*
X44560000Y-58360000D02*
X44560000Y-78800000D01*
X44560000Y-78800000D02*
X39260000Y-78800000D01*
X39260000Y-78800000D02*
X39260000Y-58360000D01*
X39260000Y-58360000D02*
X40910000Y-58360000D01*
X40910000Y-58360000D02*
G75*
G03*
X42910000Y-58360000I1000000J0D01*
G01*
%TO.C,U$1*%
X73830000Y-80110000D02*
X73430000Y-80110000D01*
X76430000Y-80110000D02*
X76030000Y-80110000D01*
X64430000Y-80110000D02*
X71230000Y-80110000D01*
X64430000Y-69710000D02*
X64430000Y-70110000D01*
X64430000Y-62010000D02*
X64430000Y-62410000D01*
X64430000Y-36610000D02*
X64430000Y-37010000D01*
X64430000Y-29110000D02*
X64430000Y-29410000D01*
X64430000Y-51910000D02*
X64430000Y-52310000D01*
X64430000Y-67110000D02*
X64430000Y-67510000D01*
X64430000Y-46810000D02*
X64430000Y-47210000D01*
X64430000Y-41710000D02*
X64430000Y-42110000D01*
X64430000Y-54410000D02*
X64430000Y-54810000D01*
X64430000Y-59510000D02*
X64430000Y-59910000D01*
X64430000Y-74710000D02*
X64430000Y-75110000D01*
X64430000Y-77310000D02*
X64430000Y-77710000D01*
X64430000Y-72210000D02*
X64430000Y-72610000D01*
X64430000Y-39210000D02*
X64430000Y-39610000D01*
X64430000Y-31510000D02*
X64430000Y-31910000D01*
X64430000Y-34110000D02*
X64430000Y-34510000D01*
X64430000Y-64610000D02*
X64430000Y-65010000D01*
X64430000Y-56910000D02*
X64430000Y-57310000D01*
X64430000Y-49310000D02*
X64430000Y-49710000D01*
X64430000Y-44210000D02*
X64430000Y-44610000D01*
X85430000Y-77310000D02*
X85430000Y-77710000D01*
X85430000Y-74710000D02*
X85430000Y-75110000D01*
X85430000Y-72210000D02*
X85430000Y-72610000D01*
X85430000Y-69710000D02*
X85430000Y-70110000D01*
X85430000Y-67110000D02*
X85430000Y-67510000D01*
X85430000Y-64610000D02*
X85430000Y-65010000D01*
X85430000Y-62010000D02*
X85430000Y-62410000D01*
X85430000Y-59510000D02*
X85430000Y-59910000D01*
X85430000Y-56910000D02*
X85430000Y-57310000D01*
X85430000Y-54410000D02*
X85430000Y-54810000D01*
X85430000Y-51910000D02*
X85430000Y-52310000D01*
X85430000Y-49310000D02*
X85430000Y-49710000D01*
X85430000Y-46810000D02*
X85430000Y-47210000D01*
X85430000Y-44210000D02*
X85430000Y-44610000D01*
X85430000Y-41710000D02*
X85430000Y-42110000D01*
X85430000Y-39210000D02*
X85430000Y-39610000D01*
X85430000Y-36610000D02*
X85430000Y-37010000D01*
X85430000Y-34110000D02*
X85430000Y-34510000D01*
X85430000Y-31510000D02*
X85430000Y-31910000D01*
X85430000Y-29110000D02*
X85430000Y-29410000D01*
X82423000Y-31777000D02*
X82423000Y-29110000D01*
X85430000Y-31777000D02*
X82423000Y-31777000D01*
X78630000Y-80110000D02*
X85430000Y-80110000D01*
X85430000Y-29110000D02*
X64430000Y-29110000D01*
%TO.C,RN1*%
D10*
X42600476Y-28602380D02*
X42933809Y-28126190D01*
X43171904Y-28602380D02*
X43171904Y-27602380D01*
X42790952Y-27602380D01*
X42695714Y-27650000D01*
X42648095Y-27697619D01*
X42600476Y-27792857D01*
X42600476Y-27935714D01*
X42648095Y-28030952D01*
X42695714Y-28078571D01*
X42790952Y-28126190D01*
X43171904Y-28126190D01*
X42171904Y-28602380D02*
X42171904Y-27602380D01*
X41600476Y-28602380D01*
X41600476Y-27602380D01*
X40600476Y-28602380D02*
X41171904Y-28602380D01*
X40886190Y-28602380D02*
X40886190Y-27602380D01*
X40981428Y-27745238D01*
X41076666Y-27840476D01*
X41171904Y-27888095D01*
%TO.C,RN2*%
X42600476Y-57812380D02*
X42933809Y-57336190D01*
X43171904Y-57812380D02*
X43171904Y-56812380D01*
X42790952Y-56812380D01*
X42695714Y-56860000D01*
X42648095Y-56907619D01*
X42600476Y-57002857D01*
X42600476Y-57145714D01*
X42648095Y-57240952D01*
X42695714Y-57288571D01*
X42790952Y-57336190D01*
X43171904Y-57336190D01*
X42171904Y-57812380D02*
X42171904Y-56812380D01*
X41600476Y-57812380D01*
X41600476Y-56812380D01*
X41171904Y-56907619D02*
X41124285Y-56860000D01*
X41029047Y-56812380D01*
X40790952Y-56812380D01*
X40695714Y-56860000D01*
X40648095Y-56907619D01*
X40600476Y-57002857D01*
X40600476Y-57098095D01*
X40648095Y-57240952D01*
X41219523Y-57812380D01*
X40600476Y-57812380D01*
%TO.C,U$1*%
X76168095Y-54062380D02*
X76168095Y-54871904D01*
X76120476Y-54967142D01*
X76072857Y-55014761D01*
X75977619Y-55062380D01*
X75787142Y-55062380D01*
X75691904Y-55014761D01*
X75644285Y-54967142D01*
X75596666Y-54871904D01*
X75596666Y-54062380D01*
X75168095Y-55014761D02*
X75025238Y-55062380D01*
X74787142Y-55062380D01*
X74691904Y-55014761D01*
X74644285Y-54967142D01*
X74596666Y-54871904D01*
X74596666Y-54776666D01*
X74644285Y-54681428D01*
X74691904Y-54633809D01*
X74787142Y-54586190D01*
X74977619Y-54538571D01*
X75072857Y-54490952D01*
X75120476Y-54443333D01*
X75168095Y-54348095D01*
X75168095Y-54252857D01*
X75120476Y-54157619D01*
X75072857Y-54110000D01*
X74977619Y-54062380D01*
X74739523Y-54062380D01*
X74596666Y-54110000D01*
X74882380Y-53919523D02*
X74882380Y-55205238D01*
X73644285Y-55062380D02*
X74215714Y-55062380D01*
X73930000Y-55062380D02*
X73930000Y-54062380D01*
X74025238Y-54205238D01*
X74120476Y-54300476D01*
X74215714Y-54348095D01*
X71025238Y-81133809D02*
X70910952Y-81171904D01*
X70720476Y-81171904D01*
X70644285Y-81133809D01*
X70606190Y-81095714D01*
X70568095Y-81019523D01*
X70568095Y-80943333D01*
X70606190Y-80867142D01*
X70644285Y-80829047D01*
X70720476Y-80790952D01*
X70872857Y-80752857D01*
X70949047Y-80714761D01*
X70987142Y-80676666D01*
X71025238Y-80600476D01*
X71025238Y-80524285D01*
X70987142Y-80448095D01*
X70949047Y-80410000D01*
X70872857Y-80371904D01*
X70682380Y-80371904D01*
X70568095Y-80410000D01*
X70301428Y-80371904D02*
X70110952Y-81171904D01*
X69958571Y-80600476D01*
X69806190Y-81171904D01*
X69615714Y-80371904D01*
X69310952Y-81171904D02*
X69310952Y-80371904D01*
X69120476Y-80371904D01*
X69006190Y-80410000D01*
X68930000Y-80486190D01*
X68891904Y-80562380D01*
X68853809Y-80714761D01*
X68853809Y-80829047D01*
X68891904Y-80981428D01*
X68930000Y-81057619D01*
X69006190Y-81133809D01*
X69120476Y-81171904D01*
X69310952Y-81171904D01*
X68510952Y-81171904D02*
X68510952Y-80371904D01*
X67977619Y-80371904D02*
X67825238Y-80371904D01*
X67749047Y-80410000D01*
X67672857Y-80486190D01*
X67634761Y-80638571D01*
X67634761Y-80905238D01*
X67672857Y-81057619D01*
X67749047Y-81133809D01*
X67825238Y-81171904D01*
X67977619Y-81171904D01*
X68053809Y-81133809D01*
X68130000Y-81057619D01*
X68168095Y-80905238D01*
X68168095Y-80638571D01*
X68130000Y-80486190D01*
X68053809Y-80410000D01*
X67977619Y-80371904D01*
X82439523Y-81133809D02*
X82325238Y-81171904D01*
X82134761Y-81171904D01*
X82058571Y-81133809D01*
X82020476Y-81095714D01*
X81982380Y-81019523D01*
X81982380Y-80943333D01*
X82020476Y-80867142D01*
X82058571Y-80829047D01*
X82134761Y-80790952D01*
X82287142Y-80752857D01*
X82363333Y-80714761D01*
X82401428Y-80676666D01*
X82439523Y-80600476D01*
X82439523Y-80524285D01*
X82401428Y-80448095D01*
X82363333Y-80410000D01*
X82287142Y-80371904D01*
X82096666Y-80371904D01*
X81982380Y-80410000D01*
X81715714Y-80371904D02*
X81525238Y-81171904D01*
X81372857Y-80600476D01*
X81220476Y-81171904D01*
X81030000Y-80371904D01*
X80268095Y-81095714D02*
X80306190Y-81133809D01*
X80420476Y-81171904D01*
X80496666Y-81171904D01*
X80610952Y-81133809D01*
X80687142Y-81057619D01*
X80725238Y-80981428D01*
X80763333Y-80829047D01*
X80763333Y-80714761D01*
X80725238Y-80562380D01*
X80687142Y-80486190D01*
X80610952Y-80410000D01*
X80496666Y-80371904D01*
X80420476Y-80371904D01*
X80306190Y-80410000D01*
X80268095Y-80448095D01*
X79544285Y-81171904D02*
X79925238Y-81171904D01*
X79925238Y-80371904D01*
X79277619Y-81171904D02*
X79277619Y-80371904D01*
X78820476Y-81171904D02*
X79163333Y-80714761D01*
X78820476Y-80371904D02*
X79277619Y-80829047D01*
X62778402Y-49350964D02*
X62509028Y-49081590D01*
X62670653Y-49566463D02*
X63047776Y-48812216D01*
X62293529Y-49189340D01*
X62347404Y-48165719D02*
X62428216Y-48192656D01*
X62509028Y-48273468D01*
X62562903Y-48381218D01*
X62562903Y-48488967D01*
X62535966Y-48569780D01*
X62455154Y-48704467D01*
X62374341Y-48785279D01*
X62239654Y-48866091D01*
X62158842Y-48893028D01*
X62051093Y-48893028D01*
X61943343Y-48839154D01*
X61889468Y-48785279D01*
X61835593Y-48677529D01*
X61835593Y-48623654D01*
X62024155Y-48435093D01*
X62131905Y-48542842D01*
X61539282Y-48435093D02*
X62104967Y-47869407D01*
X61216033Y-48111844D01*
X61781719Y-47546158D01*
X60946659Y-47842470D02*
X61512345Y-47276784D01*
X61377658Y-47142097D01*
X61269908Y-47088223D01*
X61162158Y-47088223D01*
X61081346Y-47115160D01*
X60946659Y-47195972D01*
X60865847Y-47276784D01*
X60785035Y-47411471D01*
X60758097Y-47492284D01*
X60758097Y-47600033D01*
X60811972Y-47707783D01*
X60946659Y-47842470D01*
X62843841Y-35708155D02*
X62924653Y-35735093D01*
X63005465Y-35815905D01*
X63059340Y-35923654D01*
X63059340Y-36031404D01*
X63032402Y-36112216D01*
X62951590Y-36246903D01*
X62870778Y-36327715D01*
X62736091Y-36408528D01*
X62655279Y-36435465D01*
X62547529Y-36435465D01*
X62439780Y-36381590D01*
X62385905Y-36327715D01*
X62332030Y-36219966D01*
X62332030Y-36166091D01*
X62520592Y-35977529D01*
X62628341Y-36085279D01*
X62035719Y-35977529D02*
X62601404Y-35411844D01*
X61712470Y-35654280D01*
X62278155Y-35088595D01*
X61443096Y-35384906D02*
X62008781Y-34819221D01*
X61874094Y-34684534D01*
X61766345Y-34630659D01*
X61658595Y-34630659D01*
X61577783Y-34657597D01*
X61443096Y-34738409D01*
X61362284Y-34819221D01*
X61281471Y-34953908D01*
X61254534Y-35034720D01*
X61254534Y-35142470D01*
X61308409Y-35250219D01*
X61443096Y-35384906D01*
X62843841Y-61108155D02*
X62924653Y-61135093D01*
X63005465Y-61215905D01*
X63059340Y-61323654D01*
X63059340Y-61431404D01*
X63032402Y-61512216D01*
X62951590Y-61646903D01*
X62870778Y-61727715D01*
X62736091Y-61808528D01*
X62655279Y-61835465D01*
X62547529Y-61835465D01*
X62439780Y-61781590D01*
X62385905Y-61727715D01*
X62332030Y-61619966D01*
X62332030Y-61566091D01*
X62520592Y-61377529D01*
X62628341Y-61485279D01*
X62035719Y-61377529D02*
X62601404Y-60811844D01*
X61712470Y-61054280D01*
X62278155Y-60488595D01*
X61443096Y-60784906D02*
X62008781Y-60219221D01*
X61874094Y-60084534D01*
X61766345Y-60030659D01*
X61658595Y-60030659D01*
X61577783Y-60057597D01*
X61443096Y-60138409D01*
X61362284Y-60219221D01*
X61281471Y-60353908D01*
X61254534Y-60434720D01*
X61254534Y-60542470D01*
X61308409Y-60650219D01*
X61443096Y-60784906D01*
X62843841Y-73808155D02*
X62924653Y-73835093D01*
X63005465Y-73915905D01*
X63059340Y-74023654D01*
X63059340Y-74131404D01*
X63032402Y-74212216D01*
X62951590Y-74346903D01*
X62870778Y-74427715D01*
X62736091Y-74508528D01*
X62655279Y-74535465D01*
X62547529Y-74535465D01*
X62439780Y-74481590D01*
X62385905Y-74427715D01*
X62332030Y-74319966D01*
X62332030Y-74266091D01*
X62520592Y-74077529D01*
X62628341Y-74185279D01*
X62035719Y-74077529D02*
X62601404Y-73511844D01*
X61712470Y-73754280D01*
X62278155Y-73188595D01*
X61443096Y-73484906D02*
X62008781Y-72919221D01*
X61874094Y-72784534D01*
X61766345Y-72730659D01*
X61658595Y-72730659D01*
X61577783Y-72757597D01*
X61443096Y-72838409D01*
X61362284Y-72919221D01*
X61281471Y-73053908D01*
X61254534Y-73134720D01*
X61254534Y-73242470D01*
X61308409Y-73350219D01*
X61443096Y-73484906D01*
X88443841Y-73808155D02*
X88524653Y-73835093D01*
X88605465Y-73915905D01*
X88659340Y-74023654D01*
X88659340Y-74131404D01*
X88632402Y-74212216D01*
X88551590Y-74346903D01*
X88470778Y-74427715D01*
X88336091Y-74508528D01*
X88255279Y-74535465D01*
X88147529Y-74535465D01*
X88039780Y-74481590D01*
X87985905Y-74427715D01*
X87932030Y-74319966D01*
X87932030Y-74266091D01*
X88120592Y-74077529D01*
X88228341Y-74185279D01*
X87635719Y-74077529D02*
X88201404Y-73511844D01*
X87312470Y-73754280D01*
X87878155Y-73188595D01*
X87043096Y-73484906D02*
X87608781Y-72919221D01*
X87474094Y-72784534D01*
X87366345Y-72730659D01*
X87258595Y-72730659D01*
X87177783Y-72757597D01*
X87043096Y-72838409D01*
X86962284Y-72919221D01*
X86881471Y-73053908D01*
X86854534Y-73134720D01*
X86854534Y-73242470D01*
X86908409Y-73350219D01*
X87043096Y-73484906D01*
X88443841Y-61108155D02*
X88524653Y-61135093D01*
X88605465Y-61215905D01*
X88659340Y-61323654D01*
X88659340Y-61431404D01*
X88632402Y-61512216D01*
X88551590Y-61646903D01*
X88470778Y-61727715D01*
X88336091Y-61808528D01*
X88255279Y-61835465D01*
X88147529Y-61835465D01*
X88039780Y-61781590D01*
X87985905Y-61727715D01*
X87932030Y-61619966D01*
X87932030Y-61566091D01*
X88120592Y-61377529D01*
X88228341Y-61485279D01*
X87635719Y-61377529D02*
X88201404Y-60811844D01*
X87312470Y-61054280D01*
X87878155Y-60488595D01*
X87043096Y-60784906D02*
X87608781Y-60219221D01*
X87474094Y-60084534D01*
X87366345Y-60030659D01*
X87258595Y-60030659D01*
X87177783Y-60057597D01*
X87043096Y-60138409D01*
X86962284Y-60219221D01*
X86881471Y-60353908D01*
X86854534Y-60434720D01*
X86854534Y-60542470D01*
X86908409Y-60650219D01*
X87043096Y-60784906D01*
X88443841Y-48408155D02*
X88524653Y-48435093D01*
X88605465Y-48515905D01*
X88659340Y-48623654D01*
X88659340Y-48731404D01*
X88632402Y-48812216D01*
X88551590Y-48946903D01*
X88470778Y-49027715D01*
X88336091Y-49108528D01*
X88255279Y-49135465D01*
X88147529Y-49135465D01*
X88039780Y-49081590D01*
X87985905Y-49027715D01*
X87932030Y-48919966D01*
X87932030Y-48866091D01*
X88120592Y-48677529D01*
X88228341Y-48785279D01*
X87635719Y-48677529D02*
X88201404Y-48111844D01*
X87312470Y-48354280D01*
X87878155Y-47788595D01*
X87043096Y-48084906D02*
X87608781Y-47519221D01*
X87474094Y-47384534D01*
X87366345Y-47330659D01*
X87258595Y-47330659D01*
X87177783Y-47357597D01*
X87043096Y-47438409D01*
X86962284Y-47519221D01*
X86881471Y-47653908D01*
X86854534Y-47734720D01*
X86854534Y-47842470D01*
X86908409Y-47950219D01*
X87043096Y-48084906D01*
X88443841Y-35708155D02*
X88524653Y-35735093D01*
X88605465Y-35815905D01*
X88659340Y-35923654D01*
X88659340Y-36031404D01*
X88632402Y-36112216D01*
X88551590Y-36246903D01*
X88470778Y-36327715D01*
X88336091Y-36408528D01*
X88255279Y-36435465D01*
X88147529Y-36435465D01*
X88039780Y-36381590D01*
X87985905Y-36327715D01*
X87932030Y-36219966D01*
X87932030Y-36166091D01*
X88120592Y-35977529D01*
X88228341Y-36085279D01*
X87635719Y-35977529D02*
X88201404Y-35411844D01*
X87312470Y-35654280D01*
X87878155Y-35088595D01*
X87043096Y-35384906D02*
X87608781Y-34819221D01*
X87474094Y-34684534D01*
X87366345Y-34630659D01*
X87258595Y-34630659D01*
X87177783Y-34657597D01*
X87043096Y-34738409D01*
X86962284Y-34819221D01*
X86881471Y-34953908D01*
X86854534Y-35034720D01*
X86854534Y-35142470D01*
X86908409Y-35250219D01*
X87043096Y-35384906D01*
X62976870Y-31137309D02*
X62222622Y-31514433D01*
X62599746Y-30760186D01*
X61953248Y-30652436D02*
X61845499Y-30598561D01*
X61791624Y-30598561D01*
X61710812Y-30625499D01*
X61630000Y-30706311D01*
X61603062Y-30787123D01*
X61603062Y-30840998D01*
X61630000Y-30921810D01*
X61845499Y-31137309D01*
X62411184Y-30571624D01*
X62222622Y-30383062D01*
X62141810Y-30356125D01*
X62087935Y-30356125D01*
X62007123Y-30383062D01*
X61953248Y-30436937D01*
X61926311Y-30517749D01*
X61926311Y-30571624D01*
X61953248Y-30652436D01*
X62141810Y-30840998D01*
X61845499Y-30005938D02*
X61387563Y-30463874D01*
X61306751Y-30490812D01*
X61252876Y-30490812D01*
X61172064Y-30463874D01*
X61064314Y-30356125D01*
X61037377Y-30275312D01*
X61037377Y-30221438D01*
X61064314Y-30140625D01*
X61522250Y-29682690D01*
X60741065Y-29979001D02*
X60633316Y-29925126D01*
X60498629Y-29790439D01*
X60471691Y-29709627D01*
X60471691Y-29655752D01*
X60498629Y-29574940D01*
X60552503Y-29521065D01*
X60633316Y-29494128D01*
X60687190Y-29494128D01*
X60768003Y-29521065D01*
X60902690Y-29601877D01*
X60983502Y-29628815D01*
X61037377Y-29628815D01*
X61118189Y-29601877D01*
X61172064Y-29548003D01*
X61199001Y-29467190D01*
X61199001Y-29413316D01*
X61172064Y-29332503D01*
X61037377Y-29197816D01*
X60929627Y-29143942D01*
X63009526Y-33679966D02*
X62255279Y-34057089D01*
X62632402Y-33302842D01*
X61932030Y-33679966D02*
X61824280Y-33626091D01*
X61689593Y-33491404D01*
X61662656Y-33410592D01*
X61662656Y-33356717D01*
X61689593Y-33275905D01*
X61743468Y-33222030D01*
X61824280Y-33195093D01*
X61878155Y-33195093D01*
X61958967Y-33222030D01*
X62093654Y-33302842D01*
X62174467Y-33329780D01*
X62228341Y-33329780D01*
X62309154Y-33302842D01*
X62363028Y-33248967D01*
X62389966Y-33168155D01*
X62389966Y-33114280D01*
X62363028Y-33033468D01*
X62228341Y-32898781D01*
X62120592Y-32844906D01*
X61501032Y-32764094D02*
X61231658Y-33033468D01*
X61985905Y-32656345D02*
X61501032Y-32764094D01*
X61608781Y-32279221D01*
X60908409Y-32656345D02*
X60800659Y-32602470D01*
X60665972Y-32467783D01*
X60639035Y-32386971D01*
X60639035Y-32333096D01*
X60665972Y-32252284D01*
X60719847Y-32198409D01*
X60800659Y-32171471D01*
X60854534Y-32171471D01*
X60935346Y-32198409D01*
X61070033Y-32279221D01*
X61150845Y-32306158D01*
X61204720Y-32306158D01*
X61285532Y-32279221D01*
X61339407Y-32225346D01*
X61366345Y-32144534D01*
X61366345Y-32090659D01*
X61339407Y-32009847D01*
X61204720Y-31875160D01*
X61096971Y-31821285D01*
X63007868Y-38568308D02*
X62657682Y-38218122D01*
X62630744Y-38622183D01*
X62549932Y-38541370D01*
X62469120Y-38514433D01*
X62415245Y-38514433D01*
X62334433Y-38541370D01*
X62199746Y-38676057D01*
X62172809Y-38756870D01*
X62172809Y-38810744D01*
X62199746Y-38891557D01*
X62361370Y-39053181D01*
X62442183Y-39080118D01*
X62496057Y-39080118D01*
X62496057Y-38056497D02*
X61741810Y-38433621D01*
X62118934Y-37679374D01*
X61984247Y-37544687D02*
X61634061Y-37194500D01*
X61607123Y-37598561D01*
X61526311Y-37517749D01*
X61445499Y-37490812D01*
X61391624Y-37490812D01*
X61310812Y-37517749D01*
X61176125Y-37652436D01*
X61149187Y-37733248D01*
X61149187Y-37787123D01*
X61176125Y-37867935D01*
X61337749Y-38029560D01*
X61418561Y-38056497D01*
X61472436Y-38056497D01*
X60906751Y-37706311D02*
X60475752Y-37275312D01*
X60691251Y-36790439D02*
X60502690Y-36601877D01*
X60125566Y-36817377D02*
X60394940Y-37086751D01*
X60960625Y-36521065D01*
X60691251Y-36251691D01*
X59883129Y-36574940D02*
X60448815Y-36009255D01*
X59559881Y-36251691D01*
X60125566Y-35686006D01*
X63040152Y-41100592D02*
X62689966Y-40750406D01*
X62663028Y-41154467D01*
X62582216Y-41073654D01*
X62501404Y-41046717D01*
X62447529Y-41046717D01*
X62366717Y-41073654D01*
X62232030Y-41208341D01*
X62205093Y-41289154D01*
X62205093Y-41343028D01*
X62232030Y-41423841D01*
X62393654Y-41585465D01*
X62474467Y-41612402D01*
X62528341Y-41612402D01*
X62528341Y-40588781D02*
X61774094Y-40965905D01*
X62151218Y-40211658D01*
X62016531Y-40076971D02*
X61666345Y-39726784D01*
X61639407Y-40130845D01*
X61558595Y-40050033D01*
X61477783Y-40023096D01*
X61423908Y-40023096D01*
X61343096Y-40050033D01*
X61208409Y-40184720D01*
X61181471Y-40265532D01*
X61181471Y-40319407D01*
X61208409Y-40400219D01*
X61370033Y-40561844D01*
X61450845Y-40588781D01*
X61504720Y-40588781D01*
X62775211Y-44143773D02*
X62505837Y-43874399D01*
X62667462Y-44359272D02*
X63044585Y-43605025D01*
X62290338Y-43982149D01*
X62101776Y-43793587D02*
X62667462Y-43227902D01*
X62532775Y-43093215D01*
X62425025Y-43039340D01*
X62317276Y-43039340D01*
X62236463Y-43066277D01*
X62101776Y-43147089D01*
X62020964Y-43227902D01*
X61940152Y-43362589D01*
X61913215Y-43443401D01*
X61913215Y-43551150D01*
X61967089Y-43658900D01*
X62101776Y-43793587D01*
X61266717Y-42850778D02*
X61266717Y-42904653D01*
X61320592Y-43012402D01*
X61374467Y-43066277D01*
X61482216Y-43120152D01*
X61589966Y-43120152D01*
X61670778Y-43093215D01*
X61805465Y-43012402D01*
X61886277Y-42931590D01*
X61967089Y-42796903D01*
X61994027Y-42716091D01*
X61994027Y-42608341D01*
X61940152Y-42500592D01*
X61886277Y-42446717D01*
X61778528Y-42392842D01*
X61724653Y-42392842D01*
X61051218Y-42850778D02*
X60620219Y-42419780D01*
X61185905Y-41746345D02*
X60431658Y-42123468D01*
X60808781Y-41369221D01*
X59731285Y-41423096D02*
X60189221Y-41342284D01*
X60054534Y-41746345D02*
X60620219Y-41180659D01*
X60404720Y-40965160D01*
X60323908Y-40938223D01*
X60270033Y-40938223D01*
X60189221Y-40965160D01*
X60108409Y-41045972D01*
X60081471Y-41126784D01*
X60081471Y-41180659D01*
X60108409Y-41261471D01*
X60323908Y-41476971D01*
X59785160Y-40884348D02*
X59596598Y-40695786D01*
X59219475Y-40911285D02*
X59488849Y-41180659D01*
X60054534Y-40614974D01*
X59785160Y-40345600D01*
X59084788Y-40183975D02*
X59273349Y-40372537D01*
X58977038Y-40668849D02*
X59542723Y-40103163D01*
X59273349Y-39833789D01*
X62832277Y-45856592D02*
X62913089Y-45883529D01*
X62993902Y-45964341D01*
X63047776Y-46072091D01*
X63047776Y-46179841D01*
X63020839Y-46260653D01*
X62940027Y-46395340D01*
X62859215Y-46476152D01*
X62724528Y-46556964D01*
X62643715Y-46583902D01*
X62535966Y-46583902D01*
X62428216Y-46530027D01*
X62374341Y-46476152D01*
X62320467Y-46368402D01*
X62320467Y-46314528D01*
X62509028Y-46125966D01*
X62616778Y-46233715D01*
X62024155Y-46125966D02*
X62589841Y-45560280D01*
X62374341Y-45344781D01*
X62293529Y-45317844D01*
X62239654Y-45317844D01*
X62158842Y-45344781D01*
X62078030Y-45425593D01*
X62051093Y-45506406D01*
X62051093Y-45560280D01*
X62078030Y-45641093D01*
X62293529Y-45856592D01*
X61997218Y-45075407D02*
X61997218Y-45021532D01*
X61970280Y-44940720D01*
X61835593Y-44806033D01*
X61754781Y-44779096D01*
X61700906Y-44779096D01*
X61620094Y-44806033D01*
X61566219Y-44859908D01*
X61512345Y-44967658D01*
X61512345Y-45614155D01*
X61162158Y-45263969D01*
X61162158Y-44617471D02*
X61242971Y-44644409D01*
X61296845Y-44644409D01*
X61377658Y-44617471D01*
X61404595Y-44590534D01*
X61431532Y-44509722D01*
X61431532Y-44455847D01*
X61404595Y-44375035D01*
X61296845Y-44267285D01*
X61216033Y-44240348D01*
X61162158Y-44240348D01*
X61081346Y-44267285D01*
X61054409Y-44294223D01*
X61027471Y-44375035D01*
X61027471Y-44428910D01*
X61054409Y-44509722D01*
X61162158Y-44617471D01*
X61189096Y-44698284D01*
X61189096Y-44752158D01*
X61162158Y-44832971D01*
X61054409Y-44940720D01*
X60973597Y-44967658D01*
X60919722Y-44967658D01*
X60838910Y-44940720D01*
X60731160Y-44832971D01*
X60704223Y-44752158D01*
X60704223Y-44698284D01*
X60731160Y-44617471D01*
X60838910Y-44509722D01*
X60919722Y-44482784D01*
X60973597Y-44482784D01*
X61054409Y-44509722D01*
X62832277Y-51200592D02*
X62913089Y-51227529D01*
X62993902Y-51308341D01*
X63047776Y-51416091D01*
X63047776Y-51523841D01*
X63020839Y-51604653D01*
X62940027Y-51739340D01*
X62859215Y-51820152D01*
X62724528Y-51900964D01*
X62643715Y-51927902D01*
X62535966Y-51927902D01*
X62428216Y-51874027D01*
X62374341Y-51820152D01*
X62320467Y-51712402D01*
X62320467Y-51658528D01*
X62509028Y-51469966D01*
X62616778Y-51577715D01*
X62024155Y-51469966D02*
X62589841Y-50904280D01*
X62374341Y-50688781D01*
X62293529Y-50661844D01*
X62239654Y-50661844D01*
X62158842Y-50688781D01*
X62078030Y-50769593D01*
X62051093Y-50850406D01*
X62051093Y-50904280D01*
X62078030Y-50985093D01*
X62293529Y-51200592D01*
X61997218Y-50419407D02*
X61997218Y-50365532D01*
X61970280Y-50284720D01*
X61835593Y-50150033D01*
X61754781Y-50123096D01*
X61700906Y-50123096D01*
X61620094Y-50150033D01*
X61566219Y-50203908D01*
X61512345Y-50311658D01*
X61512345Y-50958155D01*
X61162158Y-50607969D01*
X61539282Y-49853722D02*
X61162158Y-49476598D01*
X60838910Y-50284720D01*
X62832277Y-53730592D02*
X62913089Y-53757529D01*
X62993902Y-53838341D01*
X63047776Y-53946091D01*
X63047776Y-54053841D01*
X63020839Y-54134653D01*
X62940027Y-54269340D01*
X62859215Y-54350152D01*
X62724528Y-54430964D01*
X62643715Y-54457902D01*
X62535966Y-54457902D01*
X62428216Y-54404027D01*
X62374341Y-54350152D01*
X62320467Y-54242402D01*
X62320467Y-54188528D01*
X62509028Y-53999966D01*
X62616778Y-54107715D01*
X62024155Y-53999966D02*
X62589841Y-53434280D01*
X62374341Y-53218781D01*
X62293529Y-53191844D01*
X62239654Y-53191844D01*
X62158842Y-53218781D01*
X62078030Y-53299593D01*
X62051093Y-53380406D01*
X62051093Y-53434280D01*
X62078030Y-53515093D01*
X62293529Y-53730592D01*
X61997218Y-52949407D02*
X61997218Y-52895532D01*
X61970280Y-52814720D01*
X61835593Y-52680033D01*
X61754781Y-52653096D01*
X61700906Y-52653096D01*
X61620094Y-52680033D01*
X61566219Y-52733908D01*
X61512345Y-52841658D01*
X61512345Y-53488155D01*
X61162158Y-53137969D01*
X61242971Y-52087410D02*
X61350720Y-52195160D01*
X61377658Y-52275972D01*
X61377658Y-52329847D01*
X61350720Y-52464534D01*
X61269908Y-52599221D01*
X61054409Y-52814720D01*
X60973597Y-52841658D01*
X60919722Y-52841658D01*
X60838910Y-52814720D01*
X60731160Y-52706971D01*
X60704223Y-52626158D01*
X60704223Y-52572284D01*
X60731160Y-52491471D01*
X60865847Y-52356784D01*
X60946659Y-52329847D01*
X61000534Y-52329847D01*
X61081346Y-52356784D01*
X61189096Y-52464534D01*
X61216033Y-52545346D01*
X61216033Y-52599221D01*
X61189096Y-52680033D01*
X62091624Y-56553435D02*
X62549560Y-56472622D01*
X62414873Y-56876683D02*
X62980558Y-56310998D01*
X62765059Y-56095499D01*
X62684247Y-56068561D01*
X62630372Y-56068561D01*
X62549560Y-56095499D01*
X62468748Y-56176311D01*
X62441810Y-56257123D01*
X62441810Y-56310998D01*
X62468748Y-56391810D01*
X62684247Y-56607309D01*
X62414873Y-55745312D02*
X61956937Y-56203248D01*
X61876125Y-56230186D01*
X61822250Y-56230186D01*
X61741438Y-56203248D01*
X61633688Y-56095499D01*
X61606751Y-56014687D01*
X61606751Y-55960812D01*
X61633688Y-55879999D01*
X62091624Y-55422064D01*
X61256564Y-55718375D02*
X61822250Y-55152690D01*
X60933316Y-55395126D01*
X61499001Y-54829441D01*
X62832277Y-58810592D02*
X62913089Y-58837529D01*
X62993902Y-58918341D01*
X63047776Y-59026091D01*
X63047776Y-59133841D01*
X63020839Y-59214653D01*
X62940027Y-59349340D01*
X62859215Y-59430152D01*
X62724528Y-59510964D01*
X62643715Y-59537902D01*
X62535966Y-59537902D01*
X62428216Y-59484027D01*
X62374341Y-59430152D01*
X62320467Y-59322402D01*
X62320467Y-59268528D01*
X62509028Y-59079966D01*
X62616778Y-59187715D01*
X62024155Y-59079966D02*
X62589841Y-58514280D01*
X62374341Y-58298781D01*
X62293529Y-58271844D01*
X62239654Y-58271844D01*
X62158842Y-58298781D01*
X62078030Y-58379593D01*
X62051093Y-58460406D01*
X62051093Y-58514280D01*
X62078030Y-58595093D01*
X62293529Y-58810592D01*
X61997218Y-58029407D02*
X61997218Y-57975532D01*
X61970280Y-57894720D01*
X61835593Y-57760033D01*
X61754781Y-57733096D01*
X61700906Y-57733096D01*
X61620094Y-57760033D01*
X61566219Y-57813908D01*
X61512345Y-57921658D01*
X61512345Y-58568155D01*
X61162158Y-58217969D01*
X61458470Y-57490659D02*
X61458470Y-57436784D01*
X61431532Y-57355972D01*
X61296845Y-57221285D01*
X61216033Y-57194348D01*
X61162158Y-57194348D01*
X61081346Y-57221285D01*
X61027471Y-57275160D01*
X60973597Y-57382910D01*
X60973597Y-58029407D01*
X60623410Y-57679221D01*
X62832277Y-63900592D02*
X62913089Y-63927529D01*
X62993902Y-64008341D01*
X63047776Y-64116091D01*
X63047776Y-64223841D01*
X63020839Y-64304653D01*
X62940027Y-64439340D01*
X62859215Y-64520152D01*
X62724528Y-64600964D01*
X62643715Y-64627902D01*
X62535966Y-64627902D01*
X62428216Y-64574027D01*
X62374341Y-64520152D01*
X62320467Y-64412402D01*
X62320467Y-64358528D01*
X62509028Y-64169966D01*
X62616778Y-64277715D01*
X62024155Y-64169966D02*
X62589841Y-63604280D01*
X62374341Y-63388781D01*
X62293529Y-63361844D01*
X62239654Y-63361844D01*
X62158842Y-63388781D01*
X62078030Y-63469593D01*
X62051093Y-63550406D01*
X62051093Y-63604280D01*
X62078030Y-63685093D01*
X62293529Y-63900592D01*
X61997218Y-63119407D02*
X61997218Y-63065532D01*
X61970280Y-62984720D01*
X61835593Y-62850033D01*
X61754781Y-62823096D01*
X61700906Y-62823096D01*
X61620094Y-62850033D01*
X61566219Y-62903908D01*
X61512345Y-63011658D01*
X61512345Y-63658155D01*
X61162158Y-63307969D01*
X60623410Y-62769221D02*
X60946659Y-63092470D01*
X60785035Y-62930845D02*
X61350720Y-62365160D01*
X61323783Y-62499847D01*
X61323783Y-62607597D01*
X61350720Y-62688409D01*
X62832277Y-66430592D02*
X62913089Y-66457529D01*
X62993902Y-66538341D01*
X63047776Y-66646091D01*
X63047776Y-66753841D01*
X63020839Y-66834653D01*
X62940027Y-66969340D01*
X62859215Y-67050152D01*
X62724528Y-67130964D01*
X62643715Y-67157902D01*
X62535966Y-67157902D01*
X62428216Y-67104027D01*
X62374341Y-67050152D01*
X62320467Y-66942402D01*
X62320467Y-66888528D01*
X62509028Y-66699966D01*
X62616778Y-66807715D01*
X62024155Y-66699966D02*
X62589841Y-66134280D01*
X62374341Y-65918781D01*
X62293529Y-65891844D01*
X62239654Y-65891844D01*
X62158842Y-65918781D01*
X62078030Y-65999593D01*
X62051093Y-66080406D01*
X62051093Y-66134280D01*
X62078030Y-66215093D01*
X62293529Y-66430592D01*
X61997218Y-65649407D02*
X61997218Y-65595532D01*
X61970280Y-65514720D01*
X61835593Y-65380033D01*
X61754781Y-65353096D01*
X61700906Y-65353096D01*
X61620094Y-65380033D01*
X61566219Y-65433908D01*
X61512345Y-65541658D01*
X61512345Y-66188155D01*
X61162158Y-65837969D01*
X61377658Y-64922097D02*
X61323783Y-64868223D01*
X61242971Y-64841285D01*
X61189096Y-64841285D01*
X61108284Y-64868223D01*
X60973597Y-64949035D01*
X60838910Y-65083722D01*
X60758097Y-65218409D01*
X60731160Y-65299221D01*
X60731160Y-65353096D01*
X60758097Y-65433908D01*
X60811972Y-65487783D01*
X60892784Y-65514720D01*
X60946659Y-65514720D01*
X61027471Y-65487783D01*
X61162158Y-65406971D01*
X61296845Y-65272284D01*
X61377658Y-65137597D01*
X61404595Y-65056784D01*
X61404595Y-65002910D01*
X61377658Y-64922097D01*
X62832277Y-68970592D02*
X62913089Y-68997529D01*
X62993902Y-69078341D01*
X63047776Y-69186091D01*
X63047776Y-69293841D01*
X63020839Y-69374653D01*
X62940027Y-69509340D01*
X62859215Y-69590152D01*
X62724528Y-69670964D01*
X62643715Y-69697902D01*
X62535966Y-69697902D01*
X62428216Y-69644027D01*
X62374341Y-69590152D01*
X62320467Y-69482402D01*
X62320467Y-69428528D01*
X62509028Y-69239966D01*
X62616778Y-69347715D01*
X62024155Y-69239966D02*
X62589841Y-68674280D01*
X62374341Y-68458781D01*
X62293529Y-68431844D01*
X62239654Y-68431844D01*
X62158842Y-68458781D01*
X62078030Y-68539593D01*
X62051093Y-68620406D01*
X62051093Y-68674280D01*
X62078030Y-68755093D01*
X62293529Y-68970592D01*
X61162158Y-68377969D02*
X61485407Y-68701218D01*
X61323783Y-68539593D02*
X61889468Y-67973908D01*
X61862531Y-68108595D01*
X61862531Y-68216345D01*
X61889468Y-68297157D01*
X60892784Y-68108595D02*
X60785035Y-68000845D01*
X60758097Y-67920033D01*
X60758097Y-67866158D01*
X60785035Y-67731471D01*
X60865847Y-67596784D01*
X61081346Y-67381285D01*
X61162158Y-67354348D01*
X61216033Y-67354348D01*
X61296845Y-67381285D01*
X61404595Y-67489035D01*
X61431532Y-67569847D01*
X61431532Y-67623722D01*
X61404595Y-67704534D01*
X61269908Y-67839221D01*
X61189096Y-67866158D01*
X61135221Y-67866158D01*
X61054409Y-67839221D01*
X60946659Y-67731471D01*
X60919722Y-67650659D01*
X60919722Y-67596784D01*
X60946659Y-67515972D01*
X62832277Y-71510592D02*
X62913089Y-71537529D01*
X62993902Y-71618341D01*
X63047776Y-71726091D01*
X63047776Y-71833841D01*
X63020839Y-71914653D01*
X62940027Y-72049340D01*
X62859215Y-72130152D01*
X62724528Y-72210964D01*
X62643715Y-72237902D01*
X62535966Y-72237902D01*
X62428216Y-72184027D01*
X62374341Y-72130152D01*
X62320467Y-72022402D01*
X62320467Y-71968528D01*
X62509028Y-71779966D01*
X62616778Y-71887715D01*
X62024155Y-71779966D02*
X62589841Y-71214280D01*
X62374341Y-70998781D01*
X62293529Y-70971844D01*
X62239654Y-70971844D01*
X62158842Y-70998781D01*
X62078030Y-71079593D01*
X62051093Y-71160406D01*
X62051093Y-71214280D01*
X62078030Y-71295093D01*
X62293529Y-71510592D01*
X61162158Y-70917969D02*
X61485407Y-71241218D01*
X61323783Y-71079593D02*
X61889468Y-70513908D01*
X61862531Y-70648595D01*
X61862531Y-70756345D01*
X61889468Y-70837157D01*
X61162158Y-70271471D02*
X61242971Y-70298409D01*
X61296845Y-70298409D01*
X61377658Y-70271471D01*
X61404595Y-70244534D01*
X61431532Y-70163722D01*
X61431532Y-70109847D01*
X61404595Y-70029035D01*
X61296845Y-69921285D01*
X61216033Y-69894348D01*
X61162158Y-69894348D01*
X61081346Y-69921285D01*
X61054409Y-69948223D01*
X61027471Y-70029035D01*
X61027471Y-70082910D01*
X61054409Y-70163722D01*
X61162158Y-70271471D01*
X61189096Y-70352284D01*
X61189096Y-70406158D01*
X61162158Y-70486971D01*
X61054409Y-70594720D01*
X60973597Y-70621658D01*
X60919722Y-70621658D01*
X60838910Y-70594720D01*
X60731160Y-70486971D01*
X60704223Y-70406158D01*
X60704223Y-70352284D01*
X60731160Y-70271471D01*
X60838910Y-70163722D01*
X60919722Y-70136784D01*
X60973597Y-70136784D01*
X61054409Y-70163722D01*
X62832277Y-76590592D02*
X62913089Y-76617529D01*
X62993902Y-76698341D01*
X63047776Y-76806091D01*
X63047776Y-76913841D01*
X63020839Y-76994653D01*
X62940027Y-77129340D01*
X62859215Y-77210152D01*
X62724528Y-77290964D01*
X62643715Y-77317902D01*
X62535966Y-77317902D01*
X62428216Y-77264027D01*
X62374341Y-77210152D01*
X62320467Y-77102402D01*
X62320467Y-77048528D01*
X62509028Y-76859966D01*
X62616778Y-76967715D01*
X62024155Y-76859966D02*
X62589841Y-76294280D01*
X62374341Y-76078781D01*
X62293529Y-76051844D01*
X62239654Y-76051844D01*
X62158842Y-76078781D01*
X62078030Y-76159593D01*
X62051093Y-76240406D01*
X62051093Y-76294280D01*
X62078030Y-76375093D01*
X62293529Y-76590592D01*
X61162158Y-75997969D02*
X61485407Y-76321218D01*
X61323783Y-76159593D02*
X61889468Y-75593908D01*
X61862531Y-75728595D01*
X61862531Y-75836345D01*
X61889468Y-75917157D01*
X61539282Y-75243722D02*
X61162158Y-74866598D01*
X60838910Y-75674720D01*
X62832277Y-79130592D02*
X62913089Y-79157529D01*
X62993902Y-79238341D01*
X63047776Y-79346091D01*
X63047776Y-79453841D01*
X63020839Y-79534653D01*
X62940027Y-79669340D01*
X62859215Y-79750152D01*
X62724528Y-79830964D01*
X62643715Y-79857902D01*
X62535966Y-79857902D01*
X62428216Y-79804027D01*
X62374341Y-79750152D01*
X62320467Y-79642402D01*
X62320467Y-79588528D01*
X62509028Y-79399966D01*
X62616778Y-79507715D01*
X62024155Y-79399966D02*
X62589841Y-78834280D01*
X62374341Y-78618781D01*
X62293529Y-78591844D01*
X62239654Y-78591844D01*
X62158842Y-78618781D01*
X62078030Y-78699593D01*
X62051093Y-78780406D01*
X62051093Y-78834280D01*
X62078030Y-78915093D01*
X62293529Y-79130592D01*
X61162158Y-78537969D02*
X61485407Y-78861218D01*
X61323783Y-78699593D02*
X61889468Y-78133908D01*
X61862531Y-78268595D01*
X61862531Y-78376345D01*
X61889468Y-78457157D01*
X61242971Y-77487410D02*
X61350720Y-77595160D01*
X61377658Y-77675972D01*
X61377658Y-77729847D01*
X61350720Y-77864534D01*
X61269908Y-77999221D01*
X61054409Y-78214720D01*
X60973597Y-78241658D01*
X60919722Y-78241658D01*
X60838910Y-78214720D01*
X60731160Y-78106971D01*
X60704223Y-78026158D01*
X60704223Y-77972284D01*
X60731160Y-77891471D01*
X60865847Y-77756784D01*
X60946659Y-77729847D01*
X61000534Y-77729847D01*
X61081346Y-77756784D01*
X61189096Y-77864534D01*
X61216033Y-77945346D01*
X61216033Y-77999221D01*
X61189096Y-78080033D01*
X88940277Y-79130592D02*
X89021089Y-79157529D01*
X89101902Y-79238341D01*
X89155776Y-79346091D01*
X89155776Y-79453841D01*
X89128839Y-79534653D01*
X89048027Y-79669340D01*
X88967215Y-79750152D01*
X88832528Y-79830964D01*
X88751715Y-79857902D01*
X88643966Y-79857902D01*
X88536216Y-79804027D01*
X88482341Y-79750152D01*
X88428467Y-79642402D01*
X88428467Y-79588528D01*
X88617028Y-79399966D01*
X88724778Y-79507715D01*
X88132155Y-79399966D02*
X88697841Y-78834280D01*
X88482341Y-78618781D01*
X88401529Y-78591844D01*
X88347654Y-78591844D01*
X88266842Y-78618781D01*
X88186030Y-78699593D01*
X88159093Y-78780406D01*
X88159093Y-78834280D01*
X88186030Y-78915093D01*
X88401529Y-79130592D01*
X87270158Y-78537969D02*
X87593407Y-78861218D01*
X87431783Y-78699593D02*
X87997468Y-78133908D01*
X87970531Y-78268595D01*
X87970531Y-78376345D01*
X87997468Y-78457157D01*
X87324033Y-77460473D02*
X87593407Y-77729847D01*
X87350971Y-78026158D01*
X87350971Y-77972284D01*
X87324033Y-77891471D01*
X87189346Y-77756784D01*
X87108534Y-77729847D01*
X87054659Y-77729847D01*
X86973847Y-77756784D01*
X86839160Y-77891471D01*
X86812223Y-77972284D01*
X86812223Y-78026158D01*
X86839160Y-78106971D01*
X86973847Y-78241658D01*
X87054659Y-78268595D01*
X87108534Y-78268595D01*
X88986277Y-76590592D02*
X89067089Y-76617529D01*
X89147902Y-76698341D01*
X89201776Y-76806091D01*
X89201776Y-76913841D01*
X89174839Y-76994653D01*
X89094027Y-77129340D01*
X89013215Y-77210152D01*
X88878528Y-77290964D01*
X88797715Y-77317902D01*
X88689966Y-77317902D01*
X88582216Y-77264027D01*
X88528341Y-77210152D01*
X88474467Y-77102402D01*
X88474467Y-77048528D01*
X88663028Y-76859966D01*
X88770778Y-76967715D01*
X88178155Y-76859966D02*
X88743841Y-76294280D01*
X88528341Y-76078781D01*
X88447529Y-76051844D01*
X88393654Y-76051844D01*
X88312842Y-76078781D01*
X88232030Y-76159593D01*
X88205093Y-76240406D01*
X88205093Y-76294280D01*
X88232030Y-76375093D01*
X88447529Y-76590592D01*
X87316158Y-75997969D02*
X87639407Y-76321218D01*
X87477783Y-76159593D02*
X88043468Y-75593908D01*
X88016531Y-75728595D01*
X88016531Y-75836345D01*
X88043468Y-75917157D01*
X87208409Y-75135972D02*
X86831285Y-75513096D01*
X87558595Y-75055160D02*
X87289221Y-75593908D01*
X86939035Y-75243722D01*
X88940277Y-71510592D02*
X89021089Y-71537529D01*
X89101902Y-71618341D01*
X89155776Y-71726091D01*
X89155776Y-71833841D01*
X89128839Y-71914653D01*
X89048027Y-72049340D01*
X88967215Y-72130152D01*
X88832528Y-72210964D01*
X88751715Y-72237902D01*
X88643966Y-72237902D01*
X88536216Y-72184027D01*
X88482341Y-72130152D01*
X88428467Y-72022402D01*
X88428467Y-71968528D01*
X88617028Y-71779966D01*
X88724778Y-71887715D01*
X88132155Y-71779966D02*
X88697841Y-71214280D01*
X88482341Y-70998781D01*
X88401529Y-70971844D01*
X88347654Y-70971844D01*
X88266842Y-70998781D01*
X88186030Y-71079593D01*
X88159093Y-71160406D01*
X88159093Y-71214280D01*
X88186030Y-71295093D01*
X88401529Y-71510592D01*
X87270158Y-70917969D02*
X87593407Y-71241218D01*
X87431783Y-71079593D02*
X87997468Y-70513908D01*
X87970531Y-70648595D01*
X87970531Y-70756345D01*
X87997468Y-70837157D01*
X87647282Y-70163722D02*
X87297096Y-69813536D01*
X87270158Y-70217597D01*
X87189346Y-70136784D01*
X87108534Y-70109847D01*
X87054659Y-70109847D01*
X86973847Y-70136784D01*
X86839160Y-70271471D01*
X86812223Y-70352284D01*
X86812223Y-70406158D01*
X86839160Y-70486971D01*
X87000784Y-70648595D01*
X87081597Y-70675532D01*
X87135471Y-70675532D01*
X89086277Y-68970592D02*
X89167089Y-68997529D01*
X89247902Y-69078341D01*
X89301776Y-69186091D01*
X89301776Y-69293841D01*
X89274839Y-69374653D01*
X89194027Y-69509340D01*
X89113215Y-69590152D01*
X88978528Y-69670964D01*
X88897715Y-69697902D01*
X88789966Y-69697902D01*
X88682216Y-69644027D01*
X88628341Y-69590152D01*
X88574467Y-69482402D01*
X88574467Y-69428528D01*
X88763028Y-69239966D01*
X88870778Y-69347715D01*
X88278155Y-69239966D02*
X88843841Y-68674280D01*
X88628341Y-68458781D01*
X88547529Y-68431844D01*
X88493654Y-68431844D01*
X88412842Y-68458781D01*
X88332030Y-68539593D01*
X88305093Y-68620406D01*
X88305093Y-68674280D01*
X88332030Y-68755093D01*
X88547529Y-68970592D01*
X87416158Y-68377969D02*
X87739407Y-68701218D01*
X87577783Y-68539593D02*
X88143468Y-67973908D01*
X88116531Y-68108595D01*
X88116531Y-68216345D01*
X88143468Y-68297157D01*
X87712470Y-67650659D02*
X87712470Y-67596784D01*
X87685532Y-67515972D01*
X87550845Y-67381285D01*
X87470033Y-67354348D01*
X87416158Y-67354348D01*
X87335346Y-67381285D01*
X87281471Y-67435160D01*
X87227597Y-67542910D01*
X87227597Y-68189407D01*
X86877410Y-67839221D01*
X89086277Y-66430592D02*
X89167089Y-66457529D01*
X89247902Y-66538341D01*
X89301776Y-66646091D01*
X89301776Y-66753841D01*
X89274839Y-66834653D01*
X89194027Y-66969340D01*
X89113215Y-67050152D01*
X88978528Y-67130964D01*
X88897715Y-67157902D01*
X88789966Y-67157902D01*
X88682216Y-67104027D01*
X88628341Y-67050152D01*
X88574467Y-66942402D01*
X88574467Y-66888528D01*
X88763028Y-66699966D01*
X88870778Y-66807715D01*
X88278155Y-66699966D02*
X88843841Y-66134280D01*
X88628341Y-65918781D01*
X88547529Y-65891844D01*
X88493654Y-65891844D01*
X88412842Y-65918781D01*
X88332030Y-65999593D01*
X88305093Y-66080406D01*
X88305093Y-66134280D01*
X88332030Y-66215093D01*
X88547529Y-66430592D01*
X87416158Y-65837969D02*
X87739407Y-66161218D01*
X87577783Y-65999593D02*
X88143468Y-65433908D01*
X88116531Y-65568595D01*
X88116531Y-65676345D01*
X88143468Y-65757157D01*
X86877410Y-65299221D02*
X87200659Y-65622470D01*
X87039035Y-65460845D02*
X87604720Y-64895160D01*
X87577783Y-65029847D01*
X87577783Y-65137597D01*
X87604720Y-65218409D01*
X88940277Y-63890592D02*
X89021089Y-63917529D01*
X89101902Y-63998341D01*
X89155776Y-64106091D01*
X89155776Y-64213841D01*
X89128839Y-64294653D01*
X89048027Y-64429340D01*
X88967215Y-64510152D01*
X88832528Y-64590964D01*
X88751715Y-64617902D01*
X88643966Y-64617902D01*
X88536216Y-64564027D01*
X88482341Y-64510152D01*
X88428467Y-64402402D01*
X88428467Y-64348528D01*
X88617028Y-64159966D01*
X88724778Y-64267715D01*
X88132155Y-64159966D02*
X88697841Y-63594280D01*
X88482341Y-63378781D01*
X88401529Y-63351844D01*
X88347654Y-63351844D01*
X88266842Y-63378781D01*
X88186030Y-63459593D01*
X88159093Y-63540406D01*
X88159093Y-63594280D01*
X88186030Y-63675093D01*
X88401529Y-63890592D01*
X87270158Y-63297969D02*
X87593407Y-63621218D01*
X87431783Y-63459593D02*
X87997468Y-62893908D01*
X87970531Y-63028595D01*
X87970531Y-63136345D01*
X87997468Y-63217157D01*
X87485658Y-62382097D02*
X87431783Y-62328223D01*
X87350971Y-62301285D01*
X87297096Y-62301285D01*
X87216284Y-62328223D01*
X87081597Y-62409035D01*
X86946910Y-62543722D01*
X86866097Y-62678409D01*
X86839160Y-62759221D01*
X86839160Y-62813096D01*
X86866097Y-62893908D01*
X86919972Y-62947783D01*
X87000784Y-62974720D01*
X87054659Y-62974720D01*
X87135471Y-62947783D01*
X87270158Y-62866971D01*
X87404845Y-62732284D01*
X87485658Y-62597597D01*
X87512595Y-62516784D01*
X87512595Y-62462910D01*
X87485658Y-62382097D01*
X88416903Y-58541218D02*
X88497715Y-58568155D01*
X88578528Y-58648967D01*
X88632402Y-58756717D01*
X88632402Y-58864467D01*
X88605465Y-58945279D01*
X88524653Y-59079966D01*
X88443841Y-59160778D01*
X88309154Y-59241590D01*
X88228341Y-59268528D01*
X88120592Y-59268528D01*
X88012842Y-59214653D01*
X87958967Y-59160778D01*
X87905093Y-59053028D01*
X87905093Y-58999154D01*
X88093654Y-58810592D01*
X88201404Y-58918341D01*
X87608781Y-58810592D02*
X88174467Y-58244906D01*
X87958967Y-58029407D01*
X87878155Y-58002470D01*
X87824280Y-58002470D01*
X87743468Y-58029407D01*
X87662656Y-58110219D01*
X87635719Y-58191032D01*
X87635719Y-58244906D01*
X87662656Y-58325719D01*
X87878155Y-58541218D01*
X87016158Y-58217969D02*
X86908409Y-58110219D01*
X86881471Y-58029407D01*
X86881471Y-57975532D01*
X86908409Y-57840845D01*
X86989221Y-57706158D01*
X87204720Y-57490659D01*
X87285532Y-57463722D01*
X87339407Y-57463722D01*
X87420219Y-57490659D01*
X87527969Y-57598409D01*
X87554906Y-57679221D01*
X87554906Y-57733096D01*
X87527969Y-57813908D01*
X87393282Y-57948595D01*
X87312470Y-57975532D01*
X87258595Y-57975532D01*
X87177783Y-57948595D01*
X87070033Y-57840845D01*
X87043096Y-57760033D01*
X87043096Y-57706158D01*
X87070033Y-57625346D01*
X88416903Y-56001218D02*
X88497715Y-56028155D01*
X88578528Y-56108967D01*
X88632402Y-56216717D01*
X88632402Y-56324467D01*
X88605465Y-56405279D01*
X88524653Y-56539966D01*
X88443841Y-56620778D01*
X88309154Y-56701590D01*
X88228341Y-56728528D01*
X88120592Y-56728528D01*
X88012842Y-56674653D01*
X87958967Y-56620778D01*
X87905093Y-56513028D01*
X87905093Y-56459154D01*
X88093654Y-56270592D01*
X88201404Y-56378341D01*
X87608781Y-56270592D02*
X88174467Y-55704906D01*
X87958967Y-55489407D01*
X87878155Y-55462470D01*
X87824280Y-55462470D01*
X87743468Y-55489407D01*
X87662656Y-55570219D01*
X87635719Y-55651032D01*
X87635719Y-55704906D01*
X87662656Y-55785719D01*
X87878155Y-56001218D01*
X87285532Y-55300845D02*
X87366345Y-55327783D01*
X87420219Y-55327783D01*
X87501032Y-55300845D01*
X87527969Y-55273908D01*
X87554906Y-55193096D01*
X87554906Y-55139221D01*
X87527969Y-55058409D01*
X87420219Y-54950659D01*
X87339407Y-54923722D01*
X87285532Y-54923722D01*
X87204720Y-54950659D01*
X87177783Y-54977597D01*
X87150845Y-55058409D01*
X87150845Y-55112284D01*
X87177783Y-55193096D01*
X87285532Y-55300845D01*
X87312470Y-55381658D01*
X87312470Y-55435532D01*
X87285532Y-55516345D01*
X87177783Y-55624094D01*
X87096971Y-55651032D01*
X87043096Y-55651032D01*
X86962284Y-55624094D01*
X86854534Y-55516345D01*
X86827597Y-55435532D01*
X86827597Y-55381658D01*
X86854534Y-55300845D01*
X86962284Y-55193096D01*
X87043096Y-55166158D01*
X87096971Y-55166158D01*
X87177783Y-55193096D01*
X88316903Y-53431218D02*
X88397715Y-53458155D01*
X88478528Y-53538967D01*
X88532402Y-53646717D01*
X88532402Y-53754467D01*
X88505465Y-53835279D01*
X88424653Y-53969966D01*
X88343841Y-54050778D01*
X88209154Y-54131590D01*
X88128341Y-54158528D01*
X88020592Y-54158528D01*
X87912842Y-54104653D01*
X87858967Y-54050778D01*
X87805093Y-53943028D01*
X87805093Y-53889154D01*
X87993654Y-53700592D01*
X88101404Y-53808341D01*
X87508781Y-53700592D02*
X88074467Y-53134906D01*
X87858967Y-52919407D01*
X87778155Y-52892470D01*
X87724280Y-52892470D01*
X87643468Y-52919407D01*
X87562656Y-53000219D01*
X87535719Y-53081032D01*
X87535719Y-53134906D01*
X87562656Y-53215719D01*
X87778155Y-53431218D01*
X87562656Y-52623096D02*
X87185532Y-52245972D01*
X86862284Y-53054094D01*
X88416903Y-50921218D02*
X88497715Y-50948155D01*
X88578528Y-51028967D01*
X88632402Y-51136717D01*
X88632402Y-51244467D01*
X88605465Y-51325279D01*
X88524653Y-51459966D01*
X88443841Y-51540778D01*
X88309154Y-51621590D01*
X88228341Y-51648528D01*
X88120592Y-51648528D01*
X88012842Y-51594653D01*
X87958967Y-51540778D01*
X87905093Y-51433028D01*
X87905093Y-51379154D01*
X88093654Y-51190592D01*
X88201404Y-51298341D01*
X87608781Y-51190592D02*
X88174467Y-50624906D01*
X87958967Y-50409407D01*
X87878155Y-50382470D01*
X87824280Y-50382470D01*
X87743468Y-50409407D01*
X87662656Y-50490219D01*
X87635719Y-50571032D01*
X87635719Y-50624906D01*
X87662656Y-50705719D01*
X87878155Y-50921218D01*
X87366345Y-49816784D02*
X87474094Y-49924534D01*
X87501032Y-50005346D01*
X87501032Y-50059221D01*
X87474094Y-50193908D01*
X87393282Y-50328595D01*
X87177783Y-50544094D01*
X87096971Y-50571032D01*
X87043096Y-50571032D01*
X86962284Y-50544094D01*
X86854534Y-50436345D01*
X86827597Y-50355532D01*
X86827597Y-50301658D01*
X86854534Y-50220845D01*
X86989221Y-50086158D01*
X87070033Y-50059221D01*
X87123908Y-50059221D01*
X87204720Y-50086158D01*
X87312470Y-50193908D01*
X87339407Y-50274720D01*
X87339407Y-50328595D01*
X87312470Y-50409407D01*
X88416903Y-45841218D02*
X88497715Y-45868155D01*
X88578528Y-45948967D01*
X88632402Y-46056717D01*
X88632402Y-46164467D01*
X88605465Y-46245279D01*
X88524653Y-46379966D01*
X88443841Y-46460778D01*
X88309154Y-46541590D01*
X88228341Y-46568528D01*
X88120592Y-46568528D01*
X88012842Y-46514653D01*
X87958967Y-46460778D01*
X87905093Y-46353028D01*
X87905093Y-46299154D01*
X88093654Y-46110592D01*
X88201404Y-46218341D01*
X87608781Y-46110592D02*
X88174467Y-45544906D01*
X87958967Y-45329407D01*
X87878155Y-45302470D01*
X87824280Y-45302470D01*
X87743468Y-45329407D01*
X87662656Y-45410219D01*
X87635719Y-45491032D01*
X87635719Y-45544906D01*
X87662656Y-45625719D01*
X87878155Y-45841218D01*
X87339407Y-44709847D02*
X87608781Y-44979221D01*
X87366345Y-45275532D01*
X87366345Y-45221658D01*
X87339407Y-45140845D01*
X87204720Y-45006158D01*
X87123908Y-44979221D01*
X87070033Y-44979221D01*
X86989221Y-45006158D01*
X86854534Y-45140845D01*
X86827597Y-45221658D01*
X86827597Y-45275532D01*
X86854534Y-45356345D01*
X86989221Y-45491032D01*
X87070033Y-45517969D01*
X87123908Y-45517969D01*
X88416903Y-43301218D02*
X88497715Y-43328155D01*
X88578528Y-43408967D01*
X88632402Y-43516717D01*
X88632402Y-43624467D01*
X88605465Y-43705279D01*
X88524653Y-43839966D01*
X88443841Y-43920778D01*
X88309154Y-44001590D01*
X88228341Y-44028528D01*
X88120592Y-44028528D01*
X88012842Y-43974653D01*
X87958967Y-43920778D01*
X87905093Y-43813028D01*
X87905093Y-43759154D01*
X88093654Y-43570592D01*
X88201404Y-43678341D01*
X87608781Y-43570592D02*
X88174467Y-43004906D01*
X87958967Y-42789407D01*
X87878155Y-42762470D01*
X87824280Y-42762470D01*
X87743468Y-42789407D01*
X87662656Y-42870219D01*
X87635719Y-42951032D01*
X87635719Y-43004906D01*
X87662656Y-43085719D01*
X87878155Y-43301218D01*
X87177783Y-42385346D02*
X86800659Y-42762470D01*
X87527969Y-42304534D02*
X87258595Y-42843282D01*
X86908409Y-42493096D01*
X88416903Y-40761218D02*
X88497715Y-40788155D01*
X88578528Y-40868967D01*
X88632402Y-40976717D01*
X88632402Y-41084467D01*
X88605465Y-41165279D01*
X88524653Y-41299966D01*
X88443841Y-41380778D01*
X88309154Y-41461590D01*
X88228341Y-41488528D01*
X88120592Y-41488528D01*
X88012842Y-41434653D01*
X87958967Y-41380778D01*
X87905093Y-41273028D01*
X87905093Y-41219154D01*
X88093654Y-41030592D01*
X88201404Y-41138341D01*
X87608781Y-41030592D02*
X88174467Y-40464906D01*
X87958967Y-40249407D01*
X87878155Y-40222470D01*
X87824280Y-40222470D01*
X87743468Y-40249407D01*
X87662656Y-40330219D01*
X87635719Y-40411032D01*
X87635719Y-40464906D01*
X87662656Y-40545719D01*
X87878155Y-40761218D01*
X87662656Y-39953096D02*
X87312470Y-39602910D01*
X87285532Y-40006971D01*
X87204720Y-39926158D01*
X87123908Y-39899221D01*
X87070033Y-39899221D01*
X86989221Y-39926158D01*
X86854534Y-40060845D01*
X86827597Y-40141658D01*
X86827597Y-40195532D01*
X86854534Y-40276345D01*
X87016158Y-40437969D01*
X87096971Y-40464906D01*
X87150845Y-40464906D01*
X88416903Y-30601218D02*
X88497715Y-30628155D01*
X88578528Y-30708967D01*
X88632402Y-30816717D01*
X88632402Y-30924467D01*
X88605465Y-31005279D01*
X88524653Y-31139966D01*
X88443841Y-31220778D01*
X88309154Y-31301590D01*
X88228341Y-31328528D01*
X88120592Y-31328528D01*
X88012842Y-31274653D01*
X87958967Y-31220778D01*
X87905093Y-31113028D01*
X87905093Y-31059154D01*
X88093654Y-30870592D01*
X88201404Y-30978341D01*
X87608781Y-30870592D02*
X88174467Y-30304906D01*
X87958967Y-30089407D01*
X87878155Y-30062470D01*
X87824280Y-30062470D01*
X87743468Y-30089407D01*
X87662656Y-30170219D01*
X87635719Y-30251032D01*
X87635719Y-30304906D01*
X87662656Y-30385719D01*
X87878155Y-30601218D01*
X87501032Y-29631471D02*
X87447157Y-29577597D01*
X87366345Y-29550659D01*
X87312470Y-29550659D01*
X87231658Y-29577597D01*
X87096971Y-29658409D01*
X86962284Y-29793096D01*
X86881471Y-29927783D01*
X86854534Y-30008595D01*
X86854534Y-30062470D01*
X86881471Y-30143282D01*
X86935346Y-30197157D01*
X87016158Y-30224094D01*
X87070033Y-30224094D01*
X87150845Y-30197157D01*
X87285532Y-30116345D01*
X87420219Y-29981658D01*
X87501032Y-29846971D01*
X87527969Y-29766158D01*
X87527969Y-29712284D01*
X87501032Y-29631471D01*
X88516903Y-38221218D02*
X88597715Y-38248155D01*
X88678528Y-38328967D01*
X88732402Y-38436717D01*
X88732402Y-38544467D01*
X88705465Y-38625279D01*
X88624653Y-38759966D01*
X88543841Y-38840778D01*
X88409154Y-38921590D01*
X88328341Y-38948528D01*
X88220592Y-38948528D01*
X88112842Y-38894653D01*
X88058967Y-38840778D01*
X88005093Y-38733028D01*
X88005093Y-38679154D01*
X88193654Y-38490592D01*
X88301404Y-38598341D01*
X87708781Y-38490592D02*
X88274467Y-37924906D01*
X88058967Y-37709407D01*
X87978155Y-37682470D01*
X87924280Y-37682470D01*
X87843468Y-37709407D01*
X87762656Y-37790219D01*
X87735719Y-37871032D01*
X87735719Y-37924906D01*
X87762656Y-38005719D01*
X87978155Y-38221218D01*
X87681844Y-37440033D02*
X87681844Y-37386158D01*
X87654906Y-37305346D01*
X87520219Y-37170659D01*
X87439407Y-37143722D01*
X87385532Y-37143722D01*
X87304720Y-37170659D01*
X87250845Y-37224534D01*
X87196971Y-37332284D01*
X87196971Y-37978781D01*
X86846784Y-37628595D01*
X88516903Y-33131218D02*
X88597715Y-33158155D01*
X88678528Y-33238967D01*
X88732402Y-33346717D01*
X88732402Y-33454467D01*
X88705465Y-33535279D01*
X88624653Y-33669966D01*
X88543841Y-33750778D01*
X88409154Y-33831590D01*
X88328341Y-33858528D01*
X88220592Y-33858528D01*
X88112842Y-33804653D01*
X88058967Y-33750778D01*
X88005093Y-33643028D01*
X88005093Y-33589154D01*
X88193654Y-33400592D01*
X88301404Y-33508341D01*
X87708781Y-33400592D02*
X88274467Y-32834906D01*
X88058967Y-32619407D01*
X87978155Y-32592470D01*
X87924280Y-32592470D01*
X87843468Y-32619407D01*
X87762656Y-32700219D01*
X87735719Y-32781032D01*
X87735719Y-32834906D01*
X87762656Y-32915719D01*
X87978155Y-33131218D01*
X86846784Y-32538595D02*
X87170033Y-32861844D01*
X87008409Y-32700219D02*
X87574094Y-32134534D01*
X87547157Y-32269221D01*
X87547157Y-32376971D01*
X87574094Y-32457783D01*
%TD*%
M02*
